<svg width="228" height="267" viewBox="0 0 228 267" fill="none" xmlns="http://www.w3.org/2000/svg">
<g clip-path="url(#clip0_60_2285)">
<path d="M221.797 0H96.436C93.0102 0 90.2331 2.78676 90.2331 6.22441V258.169C90.2331 261.607 93.0102 264.393 96.436 264.393H221.797C225.223 264.393 228 261.607 228 258.169V6.22441C228 2.78676 225.223 0 221.797 0Z" fill="#13193F"/>
<path d="M216.84 6.93155H101.385C98.5387 6.93155 96.2312 9.2471 96.2312 12.1035V241.65C96.2312 244.507 98.5387 246.822 101.385 246.822H216.84C219.686 246.822 221.994 244.507 221.994 241.65V12.1035C221.994 9.2471 219.686 6.93155 216.84 6.93155Z" fill="white"/>
<path d="M193.134 17.8592H125.099C122.706 17.8592 120.641 16.1736 120.158 13.822L118.732 6.93155H199.501L198.075 13.822C197.592 16.1736 195.527 17.8592 193.134 17.8592Z" fill="#13193F"/>
<path d="M145.281 91.5243H119.961V66.1169H145.281V91.5243ZM123.493 87.9804H141.749V69.6608H123.493V87.9804Z" fill="#1E1E3F"/>
<path d="M137.628 73.7967H127.614V83.8445H137.628V73.7967Z" fill="#1E1E3F"/>
<path d="M145.281 144.699H119.961V119.292H145.281V144.699ZM123.493 141.155H141.749V122.835H123.493V141.155Z" fill="#1E1E3F"/>
<path d="M137.628 126.98H127.614V137.027H137.628V126.98Z" fill="#1E1E3F"/>
<path d="M198.272 91.5243H172.952V66.1169H198.272V91.5243ZM176.484 87.9804H194.74V69.6608H176.484V87.9804Z" fill="#1E1E3F"/>
<path d="M190.783 73.6322H180.45V84.0008H190.783V73.6322Z" fill="#1E1E3F"/>
<path d="M153.221 67.8847H149.288V71.8315H153.221V67.8847Z" fill="#1E1E3F"/>
<path d="M157.154 71.8397H153.221V75.7865H157.154V71.8397Z" fill="#1E1E3F"/>
<path d="M161.087 71.8397H157.154V75.7865H161.087V71.8397Z" fill="#1E1E3F"/>
<path d="M157.154 75.7865H153.221V79.7333H157.154V75.7865Z" fill="#1E1E3F"/>
<path d="M153.221 83.6801H149.288V87.6268H153.221V83.6801Z" fill="#1E1E3F"/>
<path d="M157.154 83.6801H153.221V87.6268H157.154V83.6801Z" fill="#1E1E3F"/>
<path d="M161.087 83.6801H157.154V87.6268H161.087V83.6801Z" fill="#1E1E3F"/>
<path d="M165.02 83.6801H161.087V87.6268H165.02V83.6801Z" fill="#1E1E3F"/>
<path d="M165.02 79.7333H161.087V83.6801H165.02V79.7333Z" fill="#1E1E3F"/>
<path d="M168.962 75.7865H165.029V79.7333H168.962V75.7865Z" fill="#1E1E3F"/>
<path d="M165.02 67.8847H161.087V71.8315H165.02V67.8847Z" fill="#1E1E3F"/>
<path d="M168.962 71.8397H165.029V75.7865H168.962V71.8397Z" fill="#1E1E3F"/>
<path d="M168.962 83.6801H165.029V87.6268H168.962V83.6801Z" fill="#1E1E3F"/>
<path d="M168.962 87.6351H165.029V91.5819H168.962V87.6351Z" fill="#1E1E3F"/>
<path d="M149.288 95.5287H145.355V99.4754H149.288V95.5287Z" fill="#1E1E3F"/>
<path d="M145.346 95.5287H141.413V99.4754H145.346V95.5287Z" fill="#1E1E3F"/>
<path d="M141.413 95.5287H137.48V99.4754H141.413V95.5287Z" fill="#1E1E3F"/>
<path d="M133.547 95.5287H129.614V99.4754H133.547V95.5287Z" fill="#1E1E3F"/>
<path d="M125.672 95.5287H121.739V99.4754H125.672V95.5287Z" fill="#1E1E3F"/>
<path d="M133.547 107.377H129.614V111.324H133.547V107.377Z" fill="#1E1E3F"/>
<path d="M133.547 111.324H129.614V115.271H133.547V111.324Z" fill="#1E1E3F"/>
<path d="M137.48 111.324H133.547V115.271H137.48V111.324Z" fill="#1E1E3F"/>
<path d="M141.413 111.324H137.48V115.271H141.413V111.324Z" fill="#1E1E3F"/>
<path d="M145.346 111.324H141.413V115.271H145.346V111.324Z" fill="#1E1E3F"/>
<path d="M145.346 107.377H141.413V111.324H145.346V107.377Z" fill="#1E1E3F"/>
<path d="M145.346 103.43H141.413V107.377H145.346V103.43Z" fill="#1E1E3F"/>
<path d="M149.288 103.43H145.355V107.377H149.288V103.43Z" fill="#1E1E3F"/>
<path d="M153.221 111.324H149.288V115.271H153.221V111.324Z" fill="#1E1E3F"/>
<path d="M153.221 107.377H149.288V111.324H153.221V107.377Z" fill="#1E1E3F"/>
<path d="M157.154 107.377H153.221V111.324H157.154V107.377Z" fill="#1E1E3F"/>
<path d="M161.087 107.377H157.154V111.324H161.087V107.377Z" fill="#1E1E3F"/>
<path d="M165.02 107.377H161.087V111.324H165.02V107.377Z" fill="#1E1E3F"/>
<path d="M168.962 111.324H165.029V115.271H168.962V111.324Z" fill="#1E1E3F"/>
<path d="M168.962 115.271H165.029V119.218H168.962V115.271Z" fill="#1E1E3F"/>
<path d="M172.895 119.226H168.962V123.173H172.895V119.226Z" fill="#1E1E3F"/>
<path d="M149.288 111.324H145.355V115.271H149.288V111.324Z" fill="#1E1E3F"/>
<path d="M129.606 107.377H125.672V111.324H129.606V107.377Z" fill="#1E1E3F"/>
<path d="M137.48 99.4754H133.547V103.422H137.48V99.4754Z" fill="#1E1E3F"/>
<path d="M137.48 103.43H133.547V107.377H137.48V103.43Z" fill="#1E1E3F"/>
<path d="M133.547 103.43H129.614V107.377H133.547V103.43Z" fill="#1E1E3F"/>
<path d="M129.606 103.43H125.672V107.377H129.606V103.43Z" fill="#1E1E3F"/>
<path d="M129.606 99.4754H125.672V103.422H129.606V99.4754Z" fill="#1E1E3F"/>
<path d="M125.672 103.43H121.739V107.377H125.672V103.43Z" fill="#1E1E3F"/>
<path d="M153.221 79.7333H149.288V83.6801H153.221V79.7333Z" fill="#1E1E3F"/>
<path d="M153.221 87.6351H149.288V91.5819H153.221V87.6351Z" fill="#1E1E3F"/>
<path d="M153.221 91.5818H149.288V95.5286H153.221V91.5818Z" fill="#1E1E3F"/>
<path d="M153.221 95.5287H149.288V99.4754H153.221V95.5287Z" fill="#1E1E3F"/>
<path d="M153.221 99.4754H149.288V103.422H153.221V99.4754Z" fill="#1E1E3F"/>
<path d="M157.154 99.4754H153.221V103.422H157.154V99.4754Z" fill="#1E1E3F"/>
<path d="M161.087 99.4754H157.154V103.422H161.087V99.4754Z" fill="#1E1E3F"/>
<path d="M165.02 99.4754H161.087V103.422H165.02V99.4754Z" fill="#1E1E3F"/>
<path d="M161.087 95.5287H157.154V99.4754H161.087V95.5287Z" fill="#1E1E3F"/>
<path d="M168.962 95.5287H165.029V99.4754H168.962V95.5287Z" fill="#1E1E3F"/>
<path d="M172.895 95.5287H168.962V99.4754H172.895V95.5287Z" fill="#1E1E3F"/>
<path d="M176.828 95.5287H172.895V99.4754H176.828V95.5287Z" fill="#1E1E3F"/>
<path d="M180.761 95.5287H176.828V99.4754H180.761V95.5287Z" fill="#1E1E3F"/>
<path d="M184.703 95.5287H180.769V99.4754H184.703V95.5287Z" fill="#1E1E3F"/>
<path d="M188.636 95.5287H184.703V99.4754H188.636V95.5287Z" fill="#1E1E3F"/>
<path d="M188.636 99.4754H184.703V103.422H188.636V99.4754Z" fill="#1E1E3F"/>
<path d="M176.828 103.43H172.895V107.377H176.828V103.43Z" fill="#1E1E3F"/>
<path d="M172.895 103.43H168.962V107.377H172.895V103.43Z" fill="#1E1E3F"/>
<path d="M172.895 99.4754H168.962V103.422H172.895V99.4754Z" fill="#1E1E3F"/>
<path d="M168.962 103.43H165.029V107.377H168.962V103.43Z" fill="#1E1E3F"/>
<path d="M184.703 107.377H180.769V111.324H184.703V107.377Z" fill="#1E1E3F"/>
<path d="M184.703 111.324H180.769V115.271H184.703V111.324Z" fill="#1E1E3F"/>
<path d="M188.636 111.324H184.703V115.271H188.636V111.324Z" fill="#1E1E3F"/>
<path d="M192.569 111.324H188.636V115.271H192.569V111.324Z" fill="#1E1E3F"/>
<path d="M192.569 115.271H188.636V119.218H192.569V115.271Z" fill="#1E1E3F"/>
<path d="M192.569 119.226H188.636V123.173H192.569V119.226Z" fill="#1E1E3F"/>
<path d="M184.703 123.173H180.769V127.119H184.703V123.173Z" fill="#1E1E3F"/>
<path d="M184.703 135.046H180.769V138.993H184.703V135.046Z" fill="#1E1E3F"/>
<path d="M196.502 123.173H192.569V127.119H196.502V123.173Z" fill="#1E1E3F"/>
<path d="M196.502 138.968H192.569V142.915H196.502V138.968Z" fill="#1E1E3F"/>
<path d="M180.761 138.968H176.828V142.915H180.761V138.968Z" fill="#1E1E3F"/>
<path d="M176.828 138.968H172.895V142.915H176.828V138.968Z" fill="#1E1E3F"/>
<path d="M172.895 138.968H168.962V142.915H172.895V138.968Z" fill="#1E1E3F"/>
<path d="M168.962 138.968H165.029V142.915H168.962V138.968Z" fill="#1E1E3F"/>
<path d="M172.895 135.013H168.962V138.96H172.895V135.013Z" fill="#1E1E3F"/>
<path d="M168.962 135.013H165.029V138.96H168.962V135.013Z" fill="#1E1E3F"/>
<path d="M172.895 131.066H168.962V135.013H172.895V131.066Z" fill="#1E1E3F"/>
<path d="M172.895 127.119H168.962V131.066H172.895V127.119Z" fill="#1E1E3F"/>
<path d="M168.962 123.173H165.029V127.119H168.962V123.173Z" fill="#1E1E3F"/>
<path d="M165.02 123.173H161.087V127.119H165.02V123.173Z" fill="#1E1E3F"/>
<path d="M161.087 123.173H157.154V127.119H161.087V123.173Z" fill="#1E1E3F"/>
<path d="M157.154 123.173H153.221V127.119H157.154V123.173Z" fill="#1E1E3F"/>
<path d="M165.02 127.119H161.087V131.066H165.02V127.119Z" fill="#1E1E3F"/>
<path d="M161.087 127.119H157.154V131.066H161.087V127.119Z" fill="#1E1E3F"/>
<path d="M153.221 135.013H149.288V138.96H153.221V135.013Z" fill="#1E1E3F"/>
<path d="M153.221 119.226H149.288V123.173H153.221V119.226Z" fill="#1E1E3F"/>
<path d="M157.154 127.119H153.221V131.066H157.154V127.119Z" fill="#1E1E3F"/>
<path d="M161.087 131.066H157.154V135.013H161.087V131.066Z" fill="#1E1E3F"/>
<path d="M157.154 131.066H153.221V135.013H157.154V131.066Z" fill="#1E1E3F"/>
<path d="M161.087 135.013H157.154V138.96H161.087V135.013Z" fill="#1E1E3F"/>
<path d="M157.154 138.968H153.221V142.915H157.154V138.968Z" fill="#1E1E3F"/>
<path d="M165.02 119.226H161.087V123.173H165.02V119.226Z" fill="#1E1E3F"/>
<path d="M161.087 119.226H157.154V123.173H161.087V119.226Z" fill="#1E1E3F"/>
<path d="M157.154 119.226H153.221V123.173H157.154V119.226Z" fill="#1E1E3F"/>
<path d="M161.087 115.271H157.154V119.218H161.087V115.271Z" fill="#1E1E3F"/>
<path d="M161.087 111.324H157.154V115.271H161.087V111.324Z" fill="#1E1E3F"/>
<path d="M157.154 115.271H153.221V119.218H157.154V115.271Z" fill="#1E1E3F"/>
<path d="M153.221 123.173H149.288V127.119H153.221V123.173Z" fill="#1E1E3F"/>
<path d="M168.962 131.066H165.029V135.013H168.962V131.066Z" fill="#1E1E3F"/>
<path d="M165.02 138.968H161.087V142.915H165.02V138.968Z" fill="#1E1E3F"/>
<path d="M176.828 123.173H172.895V127.119H176.828V123.173Z" fill="#1E1E3F"/>
<path d="M180.761 127.119H176.828V131.066H180.761V127.119Z" fill="#1E1E3F"/>
<path d="M192.569 127.119H188.636V131.066H192.569V127.119Z" fill="#1E1E3F"/>
<path d="M192.569 131.066H188.636V135.013H192.569V131.066Z" fill="#1E1E3F"/>
<path d="M188.636 131.066H184.703V135.013H188.636V131.066Z" fill="#1E1E3F"/>
<path d="M184.703 131.066H180.769V135.013H184.703V131.066Z" fill="#1E1E3F"/>
<path d="M180.761 131.066H176.828V135.013H180.761V131.066Z" fill="#1E1E3F"/>
<path d="M192.569 135.013H188.636V138.96H192.569V135.013Z" fill="#1E1E3F"/>
<path d="M192.569 138.968H188.636V142.915H192.569V138.968Z" fill="#1E1E3F"/>
<path d="M184.703 115.271H180.769V119.218H184.703V115.271Z" fill="#1E1E3F"/>
<path d="M180.761 107.377H176.828V111.324H180.761V107.377Z" fill="#1E1E3F"/>
<path d="M180.761 111.324H176.828V115.271H180.761V111.324Z" fill="#1E1E3F"/>
<path d="M180.761 115.271H176.828V119.218H180.761V115.271Z" fill="#1E1E3F"/>
<path d="M176.828 119.226H172.895V123.173H176.828V119.226Z" fill="#1E1E3F"/>
<path d="M176.828 111.324H172.895V115.271H176.828V111.324Z" fill="#1E1E3F"/>
<path d="M176.828 115.271H172.895V119.218H176.828V115.271Z" fill="#1E1E3F"/>
<path d="M184.703 103.43H180.769V107.377H184.703V103.43Z" fill="#1E1E3F"/>
<path d="M184.703 119.226H180.769V123.173H184.703V119.226Z" fill="#1E1E3F"/>
<path d="M188.636 119.226H184.703V123.173H188.636V119.226Z" fill="#1E1E3F"/>
<path d="M192.569 99.4754H188.636V103.422H192.569V99.4754Z" fill="#1E1E3F"/>
<path d="M192.569 103.43H188.636V107.377H192.569V103.43Z" fill="#1E1E3F"/>
<path d="M196.502 95.5287H192.569V99.4754H196.502V95.5287Z" fill="#1E1E3F"/>
<path d="M196.502 107.377H192.569V111.324H196.502V107.377Z" fill="#1E1E3F"/>
<path d="M161.087 91.5818H157.154V95.5286H161.087V91.5818Z" fill="#1E1E3F"/>
<path d="M165.02 91.5818H161.087V95.5286H165.02V91.5818Z" fill="#1E1E3F"/>
<path d="M115.61 73.5911H112.349V60.0816H125.82V63.3459H115.61V73.5911Z" fill="#E98B46"/>
<path d="M125.82 150.743H112.349V137.225H115.61V147.47H125.82V150.743Z" fill="#E98B46"/>
<path d="M205.876 150.743H192.413V147.47H202.623V137.225H205.876V150.743Z" fill="#E98B46"/>
<path d="M205.876 73.5911H202.623V63.3459H192.413V60.0816H205.876V73.5911Z" fill="#E98B46"/>
<path d="M175.812 13.4355H142.438C141.7 13.4355 141.094 12.8353 141.094 12.087C141.094 11.347 141.692 10.7385 142.438 10.7385H175.812C176.549 10.7385 177.156 11.3388 177.156 12.087C177.156 12.827 176.558 13.4355 175.812 13.4355Z" fill="white"/>
<path d="M185.424 12.087C185.424 12.827 184.825 13.4355 184.08 13.4355C183.334 13.4355 182.736 12.8353 182.736 12.087C182.736 11.3388 183.334 10.7385 184.08 10.7385C184.825 10.7385 185.424 11.3388 185.424 12.087Z" fill="white"/>
<path d="M188.488 13.4355C189.23 13.4355 189.832 12.8318 189.832 12.087C189.832 11.3423 189.23 10.7385 188.488 10.7385C187.746 10.7385 187.144 11.3423 187.144 12.087C187.144 12.8318 187.746 13.4355 188.488 13.4355Z" fill="white"/>
<path d="M58.6859 59.6376C58.6859 59.6376 49.8773 59.5636 43.9202 71.1819C37.5043 83.6883 24.7215 103.069 31.4734 111.439C38.2171 119.818 51.2129 111.439 51.2129 111.439L62.5289 79.1824L58.6941 59.6376H58.6859Z" fill="#F2AFA5"/>
<path d="M62.5208 79.1824L58.6859 59.6376C58.6859 59.6376 49.8773 59.5636 43.9202 71.1819C40.954 76.9787 36.6111 84.2392 33.481 91.2036C36.1522 92.3876 40.7327 94.7475 42.5026 97.65C44.5512 101.021 52.1798 99.681 56.1376 97.3705L62.5208 79.1741V79.1824Z" fill="#FF8039"/>
<path d="M36.6193 129.578L23.3203 176.915C22.7549 181.083 24.5658 185.219 28.0073 187.612L79.9004 222.5L90.6428 249.519L90.6756 208.637L81.318 208.283L50.0166 168.067L78.0485 151.737L82.9813 140.777L36.6193 129.578Z" fill="#13193F"/>
<path d="M76.1229 201.081L67.6666 215.075L79.9004 222.492C82.6372 229.834 85.374 237.185 88.1108 244.528C88.7336 232.819 89.3481 221.102 89.9709 209.393C87.0866 209.023 84.2105 208.653 81.3261 208.275L76.1311 201.081H76.1229Z" fill="#F2AFA5"/>
<path d="M82.9813 140.777L81.6293 146.845C80.2937 152.839 79.3104 154.056 77.1144 159.787L41.0031 251.55C41.0031 251.55 36.6603 256.845 26.5652 249.379L44.9609 130.079C44.9609 130.079 65.8066 124.094 82.9813 140.769V140.777Z" fill="#343A5A"/>
<path d="M26.557 249.387C36.6521 256.853 40.9949 251.558 40.9949 251.558L43.6498 244.816L27.9664 240.277L26.5652 249.387H26.557Z" fill="#F6C5BE"/>
<path d="M96.2721 66.8322C96.2721 66.8322 82.039 56.8337 63.1517 58.5604C44.2644 60.2872 42.5436 93.0208 42.5436 93.0208L36.6111 129.578C36.6111 129.578 53.7859 139.914 82.9731 140.777C82.9731 140.777 101.049 82.8578 96.2639 66.8322H96.2721Z" fill="#E98B46"/>
<path d="M44.207 82.052C43.0353 87.1582 42.6583 91.4174 42.5764 92.6508C54.425 97.6089 67.3307 100.026 80.1626 99.6481L82.3176 89.2631C69.2972 89.6414 56.2031 87.1582 44.207 82.0438V82.052Z" fill="white"/>
<path d="M63.7335 68.1396C64.4627 68.9372 65.7902 69.3812 66.9046 69.4881C71.1491 69.891 75.5329 68.3452 78.5647 65.3275C79.1219 64.7684 79.6464 64.1517 79.9413 63.4199C80.3428 62.4085 80.2117 61.1834 79.3022 60.4927C78.7778 60.098 78.1223 59.9089 77.4667 59.802C74.0498 59.2018 70.5919 60.32 67.6257 61.9563C66.0852 62.8114 64.2333 64.053 63.4467 65.6975C62.9632 66.7171 63.1763 67.5311 63.7253 68.1314L63.7335 68.1396Z" fill="#F6C5BE"/>
<path d="M78.2452 53.8572V61.5863C78.2452 61.5863 74.8938 66.306 68.0435 65.2782L66.9537 55.8141L78.2534 53.8572H78.2452Z" fill="#F6C5BE"/>
<path d="M49.5741 110.855L38.5121 113.511C37.9795 113.643 37.4223 113.388 37.1601 112.903L24.9919 90.2909C24.615 89.5838 25.0001 88.7122 25.7785 88.5231L36.8405 85.8672C37.3731 85.7357 37.9303 85.9906 38.1926 86.4757L50.3608 109.087C50.7377 109.795 50.3526 110.666 49.5741 110.855Z" fill="#13193F"/>
<path d="M62.3487 65.5084C62.4142 66.0593 62.5945 66.6349 63.037 67.0296C64.5611 68.378 68.4369 66.8569 70.5673 64.6533C72.8289 62.3099 73.0583 59.2758 73.0747 58.1493C69.4939 60.6078 65.9213 63.0581 62.3405 65.5166L62.3487 65.5084Z" fill="#DBA6A1"/>
<path d="M50.1149 42.946C50.1149 42.946 43.699 40.9972 45.0264 34.2548C46.3457 27.5206 55.5066 27.8824 55.5066 27.8824C55.5066 27.8824 65.6263 20.8604 74.1645 25.4321C74.1645 25.4321 83.7434 24.281 83.8253 35.7842C83.9073 47.2874 80.5395 49.6308 80.5395 49.6308L50.1231 42.946H50.1149Z" fill="#E98B46"/>
<path d="M50.2133 44.8865C50.4099 48.7757 50.9589 52.6402 51.934 56.4144C53.2615 61.537 55.5066 67.1118 58.9481 66.5691C65.2166 65.5824 74.2055 62.6223 76.6801 55.6579C76.6801 55.6579 81.7932 54.9014 81.9653 48.381C82.1374 41.8688 76.0901 44.0066 76.0901 44.0066C76.0246 44.7302 75.9344 45.5031 75.7951 46.3172C75.6968 46.901 75.5821 47.4519 75.4592 47.9699C75.2871 47.1641 75.0577 46.3089 74.7545 45.4127C73.9515 43.0117 72.8863 41.063 71.8866 39.5583L73.2386 36.6558C73.2386 36.6558 67.3634 32.2814 59.8905 35.6691C52.4175 39.0485 49.8855 38.3496 49.8855 38.3496L50.2133 44.8947V44.8865Z" fill="#F6C5BE"/>
<path d="M88.0535 63.7241C88.0535 63.7241 101.787 63.7241 100.935 80.0951C100.377 90.7185 95.8297 111.595 93.732 119.785C92.6504 124.003 88.3812 126.536 84.1777 125.45C77.1718 123.633 66.1589 120.015 54.8265 113.297C54.8265 113.297 47.0995 121.051 40.2329 115.879C40.2329 115.879 32.5059 115.016 33.3663 108.125C33.3663 108.125 30.7933 107.262 31.6455 102.954C31.6455 102.954 46.0425 105.774 45.5836 100.207C45.5836 100.207 53.114 96.9265 56.5473 102.954C56.5473 102.954 67.7076 103.817 73.7221 104.68L79.4743 73.2129C79.4743 73.2129 80.3347 62.8772 88.0617 63.7323L88.0535 63.7241Z" fill="#F6C5BE"/>
<path d="M66.585 103.957C72.4602 103.652 78.704 104.516 83.8253 107.575C78.3517 105.585 72.3372 104.779 66.585 103.957Z" fill="#1E1E3F"/>
<path d="M100.935 80.0951C101.795 63.7241 88.0535 63.7241 88.0535 63.7241C80.3265 62.8608 79.4661 73.2046 79.4661 73.2046L74.9921 97.6583C74.9921 97.6583 87.9797 98.5627 96.9113 105.766C98.7631 96.8607 100.582 86.5744 100.926 80.0951H100.935Z" fill="#E98B46"/>
<path d="M37.0372 90.5294C37.0372 91.1872 36.5128 91.7134 35.8573 91.7134C35.2017 91.7134 34.6773 91.1872 34.6773 90.5294C34.6773 89.8716 35.2017 89.3453 35.8573 89.3453C36.5128 89.3453 37.0372 89.8716 37.0372 90.5294Z" fill="white"/>
<path d="M74.943 58.7907C77.1472 55.2797 74.5578 44.6727 74.5333 44.574C74.5333 44.574 66.4375 54.589 64.3316 55.1892C62.2258 55.7895 59.7348 54.3259 58.0058 54.7863C56.2769 55.255 55.5476 56.587 54.4168 56.8502C53.286 57.1133 51.934 56.4061 51.934 56.4061C53.2615 61.5287 55.5066 67.1036 58.9481 66.5609C64.176 65.7386 71.2884 63.535 74.943 58.7824V58.7907Z" fill="#F6C5BE"/>
<path d="M57.252 58.7413L60.9557 57.8122L59.8659 60.6983L57.252 58.7413Z" fill="#1E1E3F"/>
<path d="M57.4732 50.4942C58.1041 52.2702 58.3418 54.3094 57.7354 56.1183C57.7764 54.2107 57.547 52.3936 57.4732 50.4942Z" fill="#1E1E3F"/>
<path d="M63.3811 49.5897C63.3811 50.3297 62.783 50.9218 62.0537 50.9218C61.3244 50.9218 60.7263 50.3215 60.7263 49.5897C60.7263 48.8579 61.3244 48.2577 62.0537 48.2577C62.783 48.2577 63.3811 48.8579 63.3811 49.5897Z" fill="#1E1E3F"/>
<path d="M54.1546 52.854C54.8877 52.854 55.482 52.2576 55.482 51.522C55.482 50.7863 54.8877 50.1899 54.1546 50.1899C53.4215 50.1899 52.8272 50.7863 52.8272 51.522C52.8272 52.2576 53.4215 52.854 54.1546 52.854Z" fill="#1E1E3F"/>
<path d="M58.7351 43.8175C59.8249 42.6417 61.8652 42.4197 63.1763 43.3406C61.5784 43.2913 60.2838 43.4311 58.7351 43.8175Z" fill="#1E1E3F"/>
<path d="M53.835 44.5C52.7043 44.7467 51.9996 45.0591 51.0491 45.7251C51.1884 44.5164 52.8518 43.7846 53.835 44.5Z" fill="#1E1E3F"/>
<path d="M79.1137 46.6707C78.7778 48.307 78.5565 49.7048 78.3681 51.3658C77.6798 49.8528 77.9994 47.8959 79.1137 46.6707Z" fill="#1E1E3F"/>
<path d="M27.8025 241.963C30.0313 242.982 35.8654 245.35 43.0926 245.959C43.7154 246.008 44.2971 245.638 44.5266 245.054L45.1411 243.5C45.4689 242.661 44.9609 241.724 44.0759 241.568C41.1998 241.05 35.1444 239.784 29.1955 237.49C28.3515 237.161 27.4174 237.712 27.2781 238.608L26.9913 240.45C26.8929 241.083 27.2207 241.708 27.8025 241.971V241.963Z" fill="#474C69"/>
<path d="M69.3874 216.062C71.1491 214.352 75.492 209.78 78.6959 203.259C78.9745 202.7 78.8352 202.018 78.3845 201.59L77.1718 200.447C76.5162 199.831 75.4592 199.97 74.9839 200.735C73.4435 203.227 70.0511 208.415 65.7492 213.126C65.1347 213.801 65.2986 214.861 66.0852 215.322L67.683 216.259C68.232 216.58 68.9285 216.506 69.3874 216.062Z" fill="#474C69"/>
<path d="M77.3848 220.971C78.2779 219.992 79.4661 218.446 80.3347 216.292C81.7195 212.863 81.5228 209.796 81.3179 208.275C83.9482 207.568 87.5454 207.116 90.2003 208.999C92.6585 210.742 93.9204 214.212 93.183 229.201C92.5029 243.048 92.1669 249.971 90.2413 250.3C88.4222 250.613 84.8988 245.761 77.393 220.962L77.3848 220.971Z" fill="#FF8039"/>
<path d="M26.557 249.387C27.7533 249.568 28.9415 249.749 30.1378 249.922L40.9949 251.55C41.5112 252.792 44.4938 260.249 40.9949 264.393C38.7088 267.099 34.7674 267.082 30.5721 266.959C10.513 266.375 0.483447 266.087 0.0163846 263.275C-0.671917 259.139 15.7818 252.981 26.557 249.379V249.387Z" fill="#FF8039"/>
<path d="M55.9983 105.864L56.4981 103.184C56.6046 102.6 57.1454 102.205 57.7272 102.263L58.8826 102.386C59.5709 102.46 60.0379 103.126 59.8659 103.8L57.0471 114.679C56.8668 115.386 56.0802 115.739 55.4329 115.411L54.7364 115.057C54.2693 114.819 54.0317 114.292 54.1464 113.783L55.9901 105.873L55.9983 105.864Z" fill="#0E172C"/>
<path d="M59.4398 108.52C59.4398 110.041 58.2107 111.275 56.6948 111.275C55.1789 111.275 53.9498 110.041 53.9498 108.52C53.9498 106.999 55.1789 105.766 56.6948 105.766C58.2107 105.766 59.4398 106.999 59.4398 108.52Z" fill="white"/>
<path d="M75.0003 97.6583C75.6804 91.1872 76.9095 84.8148 78.6958 78.5575C78.0239 85.0285 76.7866 91.401 75.0003 97.6583Z" fill="#1E1E3F"/>
</g>
<defs>
<clipPath id="clip0_60_2285">
<rect width="228" height="267" fill="white"/>
</clipPath>
</defs>
</svg>
