<svg width="35" height="35" viewBox="0 0 35 35" fill="none" xmlns="http://www.w3.org/2000/svg">
<path d="M33.65 17.5001C33.65 26.4195 26.4194 33.6501 17.5 33.6501C8.5806 33.6501 1.35 26.4195 1.35 17.5001C1.35 8.58072 8.5806 1.35012 17.5 1.35012C26.4194 1.35012 33.65 8.58072 33.65 17.5001Z" stroke="#00C566" stroke-width="1.7"/>
<mask id="path-2-inside-1_245_1450" fill="white">
<path d="M14.259 21.561L10.7141 17.9212C10.6214 17.8249 10.511 17.7484 10.3893 17.6962C10.2676 17.644 10.1371 17.6171 10.0052 17.6171C9.87327 17.6171 9.74268 17.644 9.62098 17.6962C9.49928 17.7484 9.38888 17.8249 9.29619 17.9212C9.20236 18.0164 9.12787 18.1298 9.07702 18.2547C9.02618 18.3797 9 18.5138 9 18.6492C9 18.7846 9.02618 18.9187 9.07702 19.0436C9.12787 19.1686 9.20236 19.2819 9.29619 19.3771L13.5399 23.7344C13.9349 24.14 14.573 24.14 14.968 23.7344L25.7038 12.7216C25.7976 12.6265 25.8721 12.5131 25.923 12.3882C25.9738 12.2632 26 12.1291 26 11.9937C26 11.8583 25.9738 11.7242 25.923 11.5992C25.8721 11.4743 25.7976 11.3609 25.7038 11.2658C25.6111 11.1694 25.5007 11.0929 25.379 11.0407C25.2573 10.9885 25.1267 10.9616 24.9948 10.9616C24.8629 10.9616 24.7324 10.9885 24.6107 11.0407C24.489 11.0929 24.3786 11.1694 24.2859 11.2658L14.259 21.561Z"/>
</mask>
<path d="M14.259 21.561L12.1098 23.6541L14.259 25.8607L16.4081 23.6541L14.259 21.561ZM10.7141 17.9212L8.55234 20.0013L8.55864 20.0079L8.56499 20.0144L10.7141 17.9212ZM9.29619 17.9212L11.4326 20.0274L11.4454 20.0144L11.458 20.0013L9.29619 17.9212ZM9.29619 19.3771L11.4453 17.284L11.439 17.2775L11.4326 17.271L9.29619 19.3771ZM13.5399 23.7344L15.689 21.6413L13.5399 23.7344ZM14.968 23.7344L12.8198 21.6402L12.8188 21.6413L14.968 23.7344ZM25.7038 12.7216L23.5674 10.6155L23.5615 10.6215L23.5557 10.6275L25.7038 12.7216ZM26 11.9937H29H26ZM25.7038 11.2658L23.542 13.3458L23.5546 13.3589L23.5674 13.3719L25.7038 11.2658ZM24.2859 11.2658L26.435 13.3589L26.4414 13.3524L26.4477 13.3458L24.2859 11.2658ZM16.4081 19.4678L12.8633 15.8281L8.56499 20.0144L12.1098 23.6541L16.4081 19.4678ZM12.8759 15.8412C12.5081 15.4589 12.0656 15.1509 11.572 14.9392L9.2067 20.4533C8.95647 20.3459 8.7348 20.1909 8.55234 20.0013L12.8759 15.8412ZM11.572 14.9392C11.0782 14.7273 10.5454 14.6171 10.0052 14.6171V20.6171C9.72876 20.6171 9.45711 20.5607 9.2067 20.4533L11.572 14.9392ZM10.0052 14.6171C9.46497 14.6171 8.93216 14.7273 8.43834 14.9392L10.8036 20.4533C10.5532 20.5607 10.2816 20.6171 10.0052 20.6171V14.6171ZM8.43834 14.9392C7.94471 15.1509 7.50225 15.4589 7.1344 15.8412L11.458 20.0013C11.2755 20.1909 11.0538 20.3459 10.8036 20.4533L8.43834 14.9392ZM7.15978 15.8151C6.78733 16.1929 6.4958 16.6385 6.29824 17.1241L11.8558 19.3854C11.7599 19.621 11.6174 19.8399 11.4326 20.0274L7.15978 15.8151ZM6.29824 17.1241C6.10073 17.6095 6 18.1277 6 18.6492H12C12 18.8999 11.9516 19.1499 11.8558 19.3854L6.29824 17.1241ZM6 18.6492C6 19.1707 6.10073 19.6889 6.29824 20.1743L11.8558 17.913C11.9516 18.1485 12 18.3985 12 18.6492H6ZM6.29824 20.1743C6.4958 20.6598 6.78733 21.1054 7.15978 21.4832L11.4326 17.271C11.6174 17.4585 11.7599 17.6774 11.8558 17.913L6.29824 20.1743ZM7.14705 21.4703L11.3907 25.8275L15.689 21.6413L11.4453 17.284L7.14705 21.4703ZM11.3907 25.8275C12.9634 27.4422 15.5445 27.4422 17.1171 25.8275L12.8188 21.6413C13.6015 20.8377 14.9064 20.8377 15.689 21.6413L11.3907 25.8275ZM17.1161 25.8285L27.852 14.8158L23.5557 10.6275L12.8198 21.6402L17.1161 25.8285ZM27.8402 14.8278C28.2127 14.45 28.5042 14.0043 28.7018 13.5188L23.1442 11.2575C23.2401 11.0219 23.3826 10.803 23.5674 10.6155L27.8402 14.8278ZM28.7018 13.5188C28.8993 13.0334 29 12.5152 29 11.9937H23C23 11.743 23.0484 11.493 23.1442 11.2575L28.7018 13.5188ZM29 11.9937C29 11.4722 28.8993 10.954 28.7018 10.4686L23.1442 12.7299C23.0484 12.4944 23 12.2444 23 11.9937H29ZM28.7018 10.4686C28.5042 9.98305 28.2127 9.53743 27.8402 9.15963L23.5674 13.3719C23.3826 13.1844 23.2401 12.9655 23.1442 12.7299L28.7018 10.4686ZM27.8656 9.18569C27.4977 8.80338 27.0553 8.49541 26.5617 8.28367L24.1964 13.7978C23.9462 13.6904 23.7245 13.5354 23.542 13.3458L27.8656 9.18569ZM26.5617 8.28367C26.0678 8.07184 25.535 7.96164 24.9948 7.96164V13.9616C24.7184 13.9616 24.4468 13.9052 24.1964 13.7978L26.5617 8.28367ZM24.9948 7.96164C24.4547 7.96164 23.9219 8.07183 23.428 8.28367L25.7933 13.7978C25.5429 13.9052 25.2712 13.9616 24.9948 13.9616V7.96164ZM23.428 8.28367C22.9344 8.49541 22.4919 8.80339 22.1241 9.18569L26.4477 13.3458C26.2652 13.5354 26.0435 13.6904 25.7933 13.7978L23.428 8.28367ZM22.1367 9.17262L12.1098 19.4678L16.4081 23.6541L26.435 13.3589L22.1367 9.17262Z" fill="#00C566" mask="url(#path-2-inside-1_245_1450)"/>
</svg>
