<svg width="252" height="213" viewBox="0 0 252 213" fill="none" xmlns="http://www.w3.org/2000/svg">
<g clip-path="url(#clip0_84_3341)">
<path d="M134.192 212.994C198.983 212.994 251.506 203.712 251.506 192.261C251.506 180.81 198.983 171.528 134.192 171.528C69.4019 171.528 16.8789 180.81 16.8789 192.261C16.8789 203.712 69.4019 212.994 134.192 212.994Z" fill="#FFD3BA"/>
<path d="M219.711 63.9088C218.879 65.0841 217.572 65.8142 216.295 66.4671C206.148 71.7142 195.092 75.2043 183.769 76.7417C174.851 69.3993 165.364 62.7573 155.413 56.9107C152.609 55.2666 149.751 53.658 147.369 51.45C144.993 49.236 143.116 46.3097 142.866 43.0748C142.729 41.2644 143.234 39.2285 144.773 38.2669C146.377 37.2579 148.468 37.7505 150.25 38.3797C156.298 40.5403 161.859 44.0126 166.451 48.5C164.794 39.2522 163.291 29.589 165.97 20.5788C166.386 19.1898 167.146 17.6169 168.578 17.4269C169.564 17.2964 170.497 17.8899 171.245 18.5428C174.495 21.3563 176.259 25.5291 177.275 29.7018C178.576 35.038 178.838 40.6174 178.048 46.0545C182.86 37.2816 188.373 28.9005 194.522 21.0061C196.268 18.7565 198.223 16.4416 200.92 15.5394C201.449 15.3613 202.031 15.2486 202.554 15.4385C203.658 15.8481 203.849 17.3142 203.801 18.4954C203.326 30.1945 197.813 41.1635 190.803 50.5418C197.379 44.5231 204.538 39.1335 212.136 34.4741C214.94 32.7527 218.136 31.073 221.368 31.7021C222.301 33.5244 221.321 35.7146 220.245 37.4538C213.912 47.6808 203.795 55.1182 192.9 60.2466C200.926 58.6914 209.201 57.2075 217.215 58.8042C218.136 58.9941 219.111 59.2494 219.746 59.9379C220.721 61.0004 220.536 62.7455 219.711 63.9207V63.9088Z" fill="#3F4972"/>
<path d="M210.71 64.0988C210.586 63.4578 209.926 63.0898 209.356 62.8939C208.583 62.6327 207.728 62.5318 206.92 62.425C203.617 61.9679 200.26 62.0688 196.939 62.3063C193.387 62.5615 189.84 62.9592 186.276 63.0245C192.228 58.5431 198.864 54.9461 204.33 49.8414C205.019 49.2004 205.684 48.5356 206.326 47.8471C206.867 47.2713 207.538 46.66 207.853 45.918C208.102 45.3304 207.972 44.63 207.312 44.3985C206.593 44.1432 205.672 44.5113 204.971 44.7071C201.401 45.7221 198.128 47.5444 194.931 49.3844C191.319 51.4678 187.791 53.6996 184.351 56.0501C185.652 53.2722 186.953 50.4944 188.224 47.7046C188.907 46.2088 189.585 44.7071 190.25 43.2054C190.856 41.8343 191.468 40.4632 191.866 39.0208C192.056 38.3204 192.222 37.5844 192.246 36.8543C192.264 36.2904 192.098 35.6256 191.474 35.4713C190.975 35.3466 190.482 35.6494 190.102 35.9461C189.472 36.4447 188.866 36.9789 188.278 37.525C185.842 39.7687 183.685 42.2913 181.707 44.9446C179.628 47.7284 177.745 50.6428 175.873 53.5631C175.606 48.773 175.267 43.799 173.289 39.371C173.087 38.9199 172.82 38.445 172.374 38.2017C171.958 37.9702 171.459 38.0177 171.091 38.3145C170.675 38.6528 170.467 39.1811 170.307 39.6797C170.128 40.2495 169.968 40.8252 169.837 41.4069C169.315 43.7396 169.202 46.1554 169.297 48.5356C169.398 51.0642 169.742 53.575 170.105 56.0798C166.326 52.8746 162.31 49.6159 157.469 48.2566C156.863 48.0845 156.245 47.942 155.627 47.8411C155.021 47.7402 154.391 47.6512 153.773 47.7462C153.233 47.8293 152.698 48.0667 152.413 48.5594C152.128 49.0401 152.169 49.61 152.336 50.1264C152.746 51.3966 153.756 52.4709 154.754 53.3197C155.882 54.2813 157.154 55.0767 158.407 55.8661C161.354 57.724 164.407 59.3919 167.467 61.0538C167.758 61.2141 167.954 60.7393 167.669 60.579C165.114 59.1841 162.554 57.7952 160.065 56.2875C158.829 55.5396 157.605 54.768 156.423 53.943C155.342 53.1832 154.284 52.3344 153.518 51.2423C153.167 50.7437 152.811 50.162 152.734 49.5447C152.651 48.8799 153.06 48.4228 153.69 48.2804C154.272 48.1498 154.878 48.2388 155.455 48.3279C156.037 48.4228 156.619 48.5475 157.189 48.7018C159.536 49.3369 161.722 50.4766 163.748 51.8061C166.065 53.3316 168.198 55.1182 170.307 56.9108C170.473 57.0532 170.752 56.8989 170.723 56.6793C170.063 52.2038 169.398 47.6275 170.057 43.1104C170.224 41.9827 170.467 40.8549 170.824 39.7687C170.966 39.3354 171.192 38.6884 171.697 38.5697C172.255 38.4391 172.618 39.092 172.808 39.5075C173.788 41.6503 174.335 43.9949 174.697 46.3097C175.113 48.9808 175.267 51.6874 175.422 54.3881C175.434 54.6018 175.76 54.7027 175.879 54.5187C179.242 49.2538 182.652 43.9355 187.042 39.4482C188.129 38.3382 189.27 37.2104 190.523 36.2845C190.719 36.142 190.945 35.9818 191.195 35.958C191.599 35.9165 191.735 36.3082 191.753 36.6406C191.795 37.3113 191.611 38.0355 191.45 38.6765C191.1 40.0536 190.523 41.3594 189.953 42.6593C189.317 44.1076 188.67 45.55 188.01 46.9923C186.537 50.2391 185.022 53.4622 183.507 56.6912C183.394 56.9286 183.697 57.1363 183.893 56.9998C187.03 54.8274 190.25 52.7558 193.535 50.809C196.619 48.9808 199.749 47.1407 203.106 45.8764C203.932 45.5678 204.769 45.2888 205.625 45.0692C206.094 44.9446 207.609 44.4697 207.484 45.4431C207.449 45.734 207.265 46.007 207.086 46.2385C206.807 46.5947 206.492 46.933 206.189 47.2654C205.56 47.9539 204.9 48.6246 204.223 49.2657C201.573 51.7705 198.609 53.9192 195.603 55.973C192.175 58.3175 188.664 60.5493 185.367 63.0838C185.147 63.25 185.301 63.5468 185.551 63.5468C192.009 63.529 198.437 62.235 204.9 62.7277C205.696 62.7871 206.492 62.8761 207.282 62.9948C208.013 63.1076 208.821 63.1847 209.498 63.4993C209.772 63.624 210.092 63.8198 210.199 64.1166C210.336 64.5024 210.027 64.8348 209.778 65.096C209.142 65.7608 208.346 66.2713 207.526 66.6868C205.922 67.5059 204.205 68.141 202.524 68.788C200.831 69.435 199.114 70.0463 197.391 70.6102C193.47 71.8923 189.478 72.9488 185.438 73.7798C185.117 73.8451 185.171 74.3556 185.497 74.2903C189.234 73.5187 192.929 72.563 196.559 71.4115C198.383 70.8358 200.195 70.2066 201.989 69.5359C203.771 68.8651 205.571 68.1885 207.294 67.3694C208.12 66.9776 208.928 66.5265 209.623 65.9329C210.146 65.4878 210.877 64.8705 210.722 64.0988H210.71Z" fill="#39438E"/>
<path d="M197.106 194.973C195.686 195.14 194.266 195.306 192.846 195.472C188.195 183.993 183.561 172.525 178.909 161.051C182.171 160.404 185.408 159.639 188.587 158.707C190.791 170.934 193.63 183.049 197.106 194.973Z" fill="#13193F"/>
<path d="M147.298 164.53C147.5 170.234 147.512 175.938 147.351 181.642C146.246 181.707 145.135 181.749 144.03 181.767C144.03 176.086 143.858 170.4 143.508 164.726C144.773 164.666 146.032 164.601 147.298 164.53Z" fill="#13193F"/>
<path d="M97.5256 164.364C99.6049 164.5 101.684 164.613 103.763 164.708C98.2088 178.146 93.3195 191.863 89.1015 205.782C88.3649 205.723 87.6282 205.67 86.8856 205.604C90.0342 191.757 93.5809 178.004 97.5197 164.358L97.5256 164.364Z" fill="#13193F"/>
<path d="M74.3267 159.277C75.4138 159.751 76.507 160.214 77.606 160.671C73.6197 170.079 69.17 179.286 64.2688 188.254C63.7401 188.242 63.2114 188.231 62.6826 188.201C66.3897 178.49 70.2691 168.845 74.3267 159.277Z" fill="#13193F"/>
<path d="M192.846 195.472C192.121 195.555 191.397 195.638 190.672 195.727C185.598 184.337 180.388 173.018 175.036 161.758C176.331 161.544 177.62 161.307 178.903 161.057C183.555 172.531 188.189 183.999 192.84 195.478L192.846 195.472Z" fill="#343A5A"/>
<path d="M143.514 164.726C143.864 170.394 144.036 176.086 144.036 181.767C143.032 181.779 142.04 181.767 141.036 181.743C139.658 176.193 138.458 170.602 137.436 164.975C139.462 164.91 141.494 164.826 143.514 164.726Z" fill="#343A5A"/>
<path d="M97.5256 164.364C93.5809 178.004 90.0402 191.762 86.8915 205.61C85.3053 205.486 83.7251 205.355 82.1389 205.236C83.9627 191.329 86.2202 177.487 88.9114 163.729C91.7808 163.978 94.6562 164.186 97.5315 164.37L97.5256 164.364Z" fill="#343A5A"/>
<path d="M65.3026 154.855C68.2254 156.481 71.2493 157.929 74.3267 159.277C70.2631 168.845 66.3838 178.484 62.6826 188.201C61.2271 188.154 59.7776 188.082 58.328 187.993C60.8232 176.989 63.146 165.937 65.3026 154.855Z" fill="#343A5A"/>
<path d="M77.606 160.672C76.507 160.22 75.4198 159.752 74.3267 159.277C71.2493 157.923 68.2195 156.475 65.3026 154.855C62.7836 153.454 60.342 151.916 58.025 150.195C54.4902 133.38 50.9555 116.558 47.4207 99.7483C46.1018 93.4624 44.7711 87.0579 45.4186 80.6712C45.9295 75.6852 47.6345 70.8774 49.9871 66.4494C52.4823 61.7246 55.7972 57.3263 60.2231 54.3407C65.3382 50.8921 71.5523 49.5625 77.6357 48.4941C87.949 46.6838 98.3633 45.4254 108.813 44.7309C116.364 44.2264 124.075 44.0305 131.353 46.1139C139.717 48.5179 146.941 53.7768 154.896 57.3026C167.794 63.0245 182.194 64.0395 196.322 64.7399L196.31 64.9596C195.9 64.9417 195.502 64.9596 195.092 65.013C192.834 65.3394 190.975 66.9539 189.502 68.6931C186.068 72.7708 184.06 77.8517 182.539 82.9564C179.765 92.2753 178.446 101.891 177.364 111.572C170.645 108.414 163.279 106.61 155.876 105.725C146.175 104.556 136.367 104.883 126.6 105.274C116.025 105.69 105.35 106.194 95.0483 108.509C94.7334 107.043 94.4245 105.589 94.1096 104.123C92.1195 94.8039 89.9629 85.1229 84.0399 77.6559C80.7606 73.5187 75.5386 70.0464 70.4592 71.4828C67.0432 72.4444 64.5124 75.5012 63.3302 78.843C62.142 82.1907 62.1005 85.8233 62.249 89.3728C63.247 114.807 72.5979 139.078 82.3587 162.612C80.7665 161.977 79.1744 161.336 77.5941 160.672H77.606Z" fill="#FC8347"/>
<path d="M177.376 111.56C176.455 119.74 175.707 127.948 174.376 136.057L174.388 136.157C150.286 138.324 126.125 139.838 101.946 140.704C99.6465 129.973 97.3593 119.235 95.0661 108.503C105.367 106.188 116.043 105.684 126.618 105.268C136.379 104.877 146.193 104.544 155.894 105.72C163.297 106.604 170.663 108.408 177.382 111.566L177.376 111.56Z" fill="#D36026"/>
<path d="M85.1093 20.739C84.3845 24.0096 82.6914 26.9833 80.4636 29.4644C78.2239 31.9514 75.4851 33.9814 72.5741 35.6256C69.6512 37.2638 66.5086 38.4984 63.2589 39.2879C63.9124 39.6974 64.5243 40.1663 65.0709 40.7124C66.5204 42.1488 67.566 43.9948 68.0116 45.9951C68.469 48.0726 68.2373 50.2688 67.4353 52.2394C66.6333 54.1982 65.1956 56.0916 63.2767 57.0651C61.138 58.1513 58.6607 57.4924 56.6943 56.3409C54.9299 55.3081 53.4328 53.8123 52.4347 52.0257C51.9238 51.1116 51.5852 50.1441 51.2644 49.1529C50.9555 48.1854 50.6584 47.1882 50.0465 46.3572C49.3574 45.4134 48.3177 44.9861 47.2365 44.6477C46.2384 44.3331 45.2582 44.0126 44.3671 43.4487C42.6621 42.3803 41.4086 40.6946 41.3016 38.6409C41.1887 36.6109 42.0739 34.6878 42.7987 32.8418C43.1908 31.8505 43.5591 30.8474 43.7671 29.8027C43.9631 28.7877 43.9096 27.7965 43.7314 26.7874C43.2977 28.4494 42.3234 30.0164 40.8263 30.8949C39.1807 31.8565 36.9886 32.0048 35.337 30.972C33.6914 29.9392 32.9785 27.9864 32.9429 26.1167C32.925 25.0424 33.1924 24.0511 33.3706 23.0064C33.4716 22.4069 33.4835 21.7956 33.2102 21.2376C32.9666 20.7568 32.5686 20.3651 32.1824 20.003C31.4161 19.2789 30.7507 18.5488 30.317 17.5694C29.8715 16.5782 29.6754 15.4801 29.6932 14.3998C29.7289 12.0908 30.6022 9.8056 31.7428 7.81716C33.9409 3.96494 37.6361 0.997129 42.068 0.207691C44.1413 -0.166254 46.583 -0.136576 48.3771 1.11584C49.9039 2.17832 50.6168 4.00056 50.9198 5.77531C51.6921 5.19362 52.506 4.65941 53.3556 4.18456C57.3716 1.94089 62.0054 0.943709 66.5917 1.32359C71.2731 1.7094 75.9366 3.48416 79.5962 6.45197C79.6378 6.48165 79.6794 6.5232 79.721 6.55288C81.5448 7.68065 83.0419 9.33075 84.0399 11.242C85.5548 14.1505 85.8044 17.5635 85.1093 20.739Z" fill="#FF5B00"/>
<path d="M153.827 34.1654L153.952 34.1832C153.482 37.5784 152.817 40.9558 151.961 44.2856C151.647 44.0898 151.308 43.9354 150.946 43.8464C150.767 43.8049 150.577 43.7752 150.411 43.8583C150.167 43.9829 150.102 44.2916 150.084 44.5646C150.048 45.2413 150.149 45.9298 150.399 46.5649C149.52 46.5768 148.771 47.4078 148.736 48.2922C148.694 49.1707 149.27 50.0135 150.043 50.429L150.191 51.0463C146.959 51.8002 143.971 53.29 141.078 54.952L141.054 54.9104L141.535 53.0882L142.308 50.156C143.543 45.4906 144.779 40.8311 146.009 36.1657C148.587 35.3941 151.189 34.7352 153.827 34.1773V34.1654Z" fill="#242C5B"/>
<path d="M141.072 54.9461C143.965 53.2781 146.953 51.7883 150.185 51.0404C150.256 51.0226 150.322 51.0107 150.387 50.9929C150.815 50.898 151.326 50.8327 151.664 51.1235C151.753 51.2066 151.825 51.3075 151.878 51.4144C151.961 51.6102 151.991 51.8417 151.973 52.0613C151.914 53.1654 151.1 54.0676 150.322 54.857C149.621 55.5752 148.926 56.2934 148.231 57.0057C148.938 56.8039 149.716 57.2669 150.031 57.9317C150.346 58.5965 150.25 59.3918 149.959 60.0626C149.662 60.7333 149.187 61.309 148.712 61.8611C149.698 62.1163 150.31 63.3272 149.93 64.2709C149.698 64.8407 149.193 65.2562 148.89 65.7904C148.409 66.6274 148.456 67.6839 148.011 68.5386C147.631 69.2747 146.918 69.7851 146.223 70.2481C143.894 71.7736 141.41 73.0557 138.808 74.041C138.369 74.7117 137.929 75.3884 137.49 76.065C134.501 80.6592 131.561 85.2771 128.661 89.9247C126.701 86.4999 124.651 83.1106 122.525 79.7748C122.453 79.662 122.382 79.5492 122.299 79.4365C124.075 76.6289 125.649 73.6908 127.028 70.6577C127.776 69.0076 128.459 67.3337 129.077 65.6302C129.107 65.559 129.125 65.4877 129.155 65.4224C129.891 63.3865 130.568 61.3031 131.81 59.5402C133.087 57.718 134.864 56.3825 136.806 55.2725C138.286 54.4415 139.866 53.7352 141.411 53.0585L141.535 53.0882L141.054 54.9104L141.078 54.952L141.072 54.9461Z" fill="#F6C5BE"/>
<path d="M151.955 44.2797C152.954 44.9208 153.643 46.0486 153.684 47.2357C153.732 48.7849 152.811 50.156 151.878 51.4025C151.825 51.2957 151.754 51.1948 151.664 51.1117C151.332 50.8208 150.821 50.8861 150.387 50.9811C150.316 50.9989 150.25 51.0107 150.185 51.0286L150.037 50.4113C149.264 49.9898 148.688 49.1529 148.73 48.2744C148.765 47.396 149.514 46.559 150.393 46.5472C150.144 45.912 150.043 45.2235 150.078 44.5469C150.102 44.2797 150.161 43.9652 150.405 43.8405C150.565 43.7574 150.761 43.7871 150.94 43.8286C151.302 43.9177 151.647 44.072 151.955 44.2679V44.2797Z" fill="#DBA6A1"/>
<path d="M142.308 50.1441L141.535 53.0763L141.411 53.0466C139.866 53.7233 138.286 54.4296 136.806 55.2606C137.697 53.4918 138.589 51.7348 139.486 49.9719C139.711 49.5268 139.943 49.0757 140.282 48.7017C140.424 48.5474 140.591 48.399 140.799 48.3396C141.22 48.215 141.672 48.488 141.892 48.862C142.117 49.2359 142.165 49.6811 142.213 50.1144L142.302 50.1441H142.308Z" fill="#DBA6A1"/>
<path d="M90.2362 53.9607C90.3134 55.1063 89.7015 56.234 88.8282 56.9879C87.9193 57.7654 86.7668 58.1987 85.5964 58.4599C83.0122 59.0356 80.321 58.8754 77.6892 58.6083C73.2454 58.1631 68.6294 57.3499 65.0412 54.6908C66.5145 52.8329 67.3937 50.5061 67.3878 48.1319C67.3878 44.2025 64.958 40.3918 61.441 38.6586C59.8905 38.4628 58.3874 37.8514 57.2171 36.8305C55.8269 35.6196 54.9536 33.7914 55.0606 31.9514C55.0903 31.34 55.2388 30.7286 55.5655 30.2063C56.0586 29.4109 56.9676 28.9005 57.9062 28.8233C58.8449 28.7461 59.8013 29.0904 60.5142 29.7018L60.5321 29.8858C60.942 29.7018 61.2866 29.3634 61.5895 29.031C63.9896 26.4372 65.7125 23.1666 66.259 19.6706C66.7937 16.2457 66.1759 12.6131 64.352 9.66309C70.1622 9.90645 76.2931 10.6009 80.9448 14.0792C82.8518 15.5156 84.4083 17.3438 85.6321 19.3975C86.6301 21.0654 87.4143 22.8699 87.9965 24.7099C89.357 28.9836 89.755 33.6015 88.8639 37.9998C88.5847 39.3768 88.1629 40.748 87.349 41.8876C86.3984 43.2113 85.0023 44.0779 83.4458 44.618C83.9568 45.5618 84.4974 46.4818 85.0736 47.384C85.8638 48.6127 86.7133 49.8057 87.6163 50.9513C88.4064 51.9544 89.2441 52.9219 90.1233 53.8479C90.153 53.8835 90.1946 53.9251 90.2243 53.9607H90.2362Z" fill="#F6C5BE"/>
<path d="M87.6282 50.9573C88.4183 51.9604 89.256 52.9279 90.1352 53.8539C84.7944 52.3106 79.6437 50.1441 74.8019 47.4256C72.7464 46.2681 70.7206 44.992 69.0512 43.3181C72.4613 44.9742 76.3287 45.6864 80.1012 45.3303C81.2299 45.2294 82.3824 45.0098 83.4577 44.624C83.9686 45.5677 84.5093 46.4877 85.0855 47.39C85.8757 48.6186 86.7252 49.8117 87.6282 50.9573Z" fill="#DBA6A1"/>
<path d="M130.277 94.0915C129.79 94.4951 129.024 93.9312 128.436 94.1627C128.858 94.7147 129.036 95.433 128.97 96.1215C128.893 96.8931 128.044 97.3502 127.331 97.0534C126.867 96.8575 126.41 96.6438 125.964 96.4123C125.115 101.113 123.849 105.737 122.18 110.219C121.966 110.8 121.734 111.382 121.36 111.869C121.295 111.952 121.23 112.035 121.158 112.112C120.665 112.634 119.881 112.949 119.204 112.7C118.794 112.557 118.467 112.219 118.039 112.124C116.952 111.887 116.192 113.275 115.11 113.519C114.297 113.697 113.471 113.169 113.037 112.468C112.639 111.827 112.497 111.073 112.384 110.325C111.997 110.563 111.582 110.741 111.13 110.842C109.746 111.145 108.338 110.622 107.025 110.112C93.8898 105.013 80.422 99.7125 70.0136 90.2215C65.7957 86.3752 62.0826 81.7454 60.4548 76.2787C58.6726 70.2837 59.5518 63.8079 61.1915 57.7595C62.6945 57.071 64.0193 55.9966 65.053 54.6967C68.6413 57.3559 73.2514 58.1691 77.7011 58.6143C80.3329 58.8814 83.024 59.0416 85.6083 58.4659C86.7727 58.2047 87.9312 57.7714 88.8401 56.9938C89.7134 56.24 90.3253 55.1122 90.2481 53.9667C90.2481 53.937 90.2481 53.9132 90.2481 53.8836C90.2184 53.8836 90.1828 53.8658 90.153 53.8539C89.2738 52.9279 88.4361 51.9664 87.646 50.9573C86.743 49.8117 85.8935 48.6187 85.1033 47.39C93.3849 45.7933 102.415 49.1944 107.673 55.7711C110.56 56.7445 113.435 57.9554 115.615 60.0744C117.522 61.9382 118.734 64.3362 119.685 66.8588C122.869 66.5205 126.042 66.0338 129.178 65.4105C129.149 65.4818 129.131 65.553 129.101 65.6183C128.483 67.3218 127.8 68.9957 127.052 70.6458C125.673 73.6789 124.093 76.617 122.323 79.4246C122.406 79.5373 122.477 79.6501 122.548 79.7629C124.675 83.0987 126.725 86.488 128.685 89.9128C129.202 90.8091 129.713 91.7113 130.218 92.6195C130.473 93.0884 130.705 93.7472 130.295 94.0856L130.277 94.0915Z" fill="#FFA878"/>
<path d="M125.18 96.537C124.847 96.9763 124.711 97.4927 124.622 98.0328C124.527 98.6026 124.467 99.2199 124.111 99.7007C123.333 100.745 121.776 100.692 121.028 99.6473C120.897 99.4692 120.671 99.5227 120.564 99.6889C118.402 103.09 115.918 106.277 113.15 109.21C112.912 109.459 113.328 109.803 113.56 109.554C116.269 106.681 118.693 103.559 120.831 100.241C121.675 101.107 123.059 101.28 124.057 100.508C124.574 100.11 124.859 99.5583 125.002 98.9291C125.156 98.2406 125.145 97.4689 125.59 96.8872C125.798 96.6142 125.388 96.264 125.18 96.543V96.537Z" fill="#FC8347"/>
<path d="M121.729 79.3C120.6 78.8192 119.804 77.5312 118.414 78.0357C117.16 78.4927 116.75 79.7748 116.542 80.9798C116.18 80.7423 115.71 80.6949 115.247 80.8136C114.392 81.0272 113.904 81.6861 113.465 82.3984C113.221 82.7961 112.984 83.2056 112.657 83.538C112.271 83.9238 111.76 84.1316 111.255 84.3037C110.108 84.7014 108.962 85.0813 107.809 85.4671L106.924 85.7698C106.633 85.8707 106.306 86.031 105.997 86.031C105.7 86.031 105.474 85.841 105.261 85.663C105.029 85.4671 104.797 85.2653 104.565 85.0635C103.722 84.3275 102.908 83.5618 102.106 82.7842C100.49 81.2053 98.9455 79.5552 97.4127 77.8932C94.4601 74.7058 91.5254 71.4709 88.1866 68.6811C85.038 66.0576 81.521 63.8021 77.6001 62.5437C75.4614 61.8552 73.1682 61.4456 70.9226 61.7483C68.8136 62.0332 66.9185 63.0067 65.2432 64.2828C64.8154 64.6093 64.4055 64.9536 64.0075 65.3038C63.752 65.5293 64.0609 65.9686 64.3164 65.743C65.861 64.3778 67.5957 63.1551 69.5978 62.5674C71.7899 61.9323 74.1306 62.152 76.3109 62.7218C80.2794 63.7546 83.8736 65.9033 87.0519 68.4437C90.355 71.0791 93.2482 74.1716 96.1117 77.2641C97.591 78.8667 99.0643 80.4693 100.597 82.0244C101.369 82.8079 102.154 83.5736 102.956 84.3215C103.36 84.6955 103.763 85.0635 104.179 85.4255C104.56 85.7579 104.946 86.1556 105.391 86.399C105.867 86.6602 106.324 86.5296 106.805 86.3693C107.376 86.1794 107.946 85.9835 108.516 85.7936C109.615 85.4196 110.744 85.0932 111.819 84.6658C112.734 84.3037 113.293 83.7042 113.798 82.8851C114.237 82.1728 114.689 81.3893 115.609 81.2884C115.942 81.2528 116.316 81.324 116.483 81.6446C116.596 81.8582 116.958 81.8879 117 81.5971C117.16 80.4515 117.398 78.8904 118.705 78.5046C119.798 78.1841 120.606 79.395 121.509 79.7808C121.83 79.9173 122.055 79.4306 121.74 79.294L121.729 79.3Z" fill="#FC8347"/>
<path d="M106.615 55.5396C101.886 54.3822 97.0503 53.6818 92.1848 53.4503C91.8462 53.4325 91.7452 53.9607 92.0898 53.9785C96.9553 54.21 101.791 54.9104 106.52 56.0679C106.859 56.151 106.954 55.6227 106.615 55.5396Z" fill="#FC8347"/>
<path d="M125.727 72.5748C125.507 71.726 124.586 71.4174 123.885 71.7794C123.82 71.4292 123.737 71.0612 123.529 70.7941C123.291 70.4914 122.887 70.3786 122.513 70.438C122.091 70.5033 121.758 70.7763 121.479 71.079C121.265 71.3105 121.063 71.5479 120.861 71.7913C120.766 70.4973 120.582 69.2093 120.303 67.9391C120.231 67.6067 119.691 67.6482 119.768 67.9866C120.095 69.4764 120.297 70.9841 120.374 72.5036C120.386 72.741 120.701 72.8241 120.849 72.652C121.105 72.3493 121.36 72.0406 121.622 71.7379C121.847 71.4708 122.079 71.1681 122.412 71.0256C122.709 70.901 123.047 70.9485 123.19 71.263C123.339 71.5895 123.38 71.9872 123.463 72.3315C123.511 72.5392 123.802 72.5451 123.921 72.4086C124.36 71.9278 125.073 72.1653 125.228 72.7648C125.311 73.0971 125.816 72.9072 125.733 72.5748H125.727Z" fill="#FC8347"/>
<path d="M170.663 107.583L170.55 107.732C166.089 111.21 160.588 113.157 155.015 114.136C149.443 115.11 143.757 115.163 138.096 115.21C132.315 115.258 126.065 115.127 121.354 111.875C121.729 111.394 121.96 110.806 122.174 110.225C123.843 105.743 125.115 101.119 125.958 96.4183C126.404 96.6498 126.861 96.8634 127.325 97.0593C128.038 97.362 128.887 96.905 128.964 96.1274C129.03 95.433 128.852 94.7207 128.43 94.1687C129.018 93.9372 129.778 94.5011 130.271 94.0974C130.687 93.7591 130.456 93.1003 130.194 92.6313C129.689 91.7232 129.178 90.821 128.661 89.9247C131.567 85.2771 134.501 80.6592 137.49 76.065C140.709 75.3468 143.929 74.6345 147.155 73.9163C147.518 73.8332 147.892 73.7501 148.177 73.5127C148.599 73.1565 148.712 72.5689 148.985 72.0822C149.591 71.0138 151.165 70.6339 152.199 71.3106C152.187 69.6723 152.413 67.6305 154.237 67.2862C155.092 67.126 155.96 67.4346 156.583 68.046C156.69 68.1409 156.797 68.2537 156.892 68.3784C160.742 73.4058 161.698 79.8579 164.116 85.6332C166.635 91.6401 170.705 96.8456 173.812 102.574C174.055 103.019 174.293 103.464 174.519 103.915C174.792 104.455 175.059 105.061 174.929 105.648C174.798 106.236 174.043 106.699 173.556 106.331V106.36C173.871 107.743 172.255 108.723 171.097 107.91C170.954 107.809 170.806 107.702 170.669 107.589L170.663 107.583Z" fill="#343A5A"/>
<path d="M172.98 102.621C172.517 103.571 171.352 103.986 170.39 103.565C169.891 103.345 169.427 103.019 168.869 102.965C168.376 102.918 167.895 103.108 167.503 103.41C166.629 104.093 166.344 105.155 165.762 106.052C165.085 107.09 163.968 107.346 162.809 107.061C161.817 106.817 160.885 105.975 159.815 106.36C158.948 106.675 158.449 107.571 157.932 108.272C157.326 109.085 156.53 109.661 155.526 109.868C154.534 110.07 153.5 109.898 152.645 109.346C152.187 109.049 151.748 108.699 151.207 108.568C150.666 108.438 150.102 108.557 149.615 108.8C148.587 109.304 147.922 110.254 147.025 110.925C146.573 111.263 146.044 111.536 145.462 111.501C145.011 111.471 144.589 111.257 144.215 111.014C143.49 110.533 142.854 109.874 142.016 109.572C140.133 108.895 138.939 110.682 137.519 111.536C135.832 112.551 134.371 111.162 133.04 110.23C132.398 109.785 131.685 109.352 130.895 109.269C130.016 109.186 129.238 109.56 128.531 110.046C127.83 110.533 127.135 111.216 126.273 111.4C125.299 111.607 124.539 110.931 124.182 110.076C123.998 109.637 123.909 109.18 123.885 108.705C123.867 108.361 123.333 108.408 123.35 108.752C123.398 109.678 123.695 110.652 124.36 111.317C124.996 111.958 125.923 112.118 126.76 111.809C128.382 111.204 129.588 109.21 131.519 109.975C133.076 110.593 134.192 112.213 135.921 112.427C136.818 112.539 137.614 112.165 138.315 111.637C139.016 111.109 139.658 110.391 140.496 110.076C142.397 109.358 143.579 111.869 145.361 112.023C146.478 112.118 147.387 111.376 148.141 110.646C148.967 109.851 150.078 108.646 151.35 109.174C151.878 109.394 152.306 109.803 152.817 110.052C153.251 110.266 153.726 110.403 154.207 110.45C155.187 110.551 156.185 110.337 157.035 109.833C157.92 109.304 158.401 108.456 159.019 107.672C159.298 107.322 159.631 106.948 160.077 106.823C160.688 106.645 161.259 107.019 161.793 107.257C162.762 107.69 163.962 107.898 164.966 107.447C165.994 106.978 166.421 105.951 166.914 105.007C167.182 104.497 167.515 103.992 168.014 103.689C168.578 103.345 169.119 103.511 169.665 103.79C170.152 104.04 170.622 104.259 171.18 104.259C171.655 104.259 172.125 104.111 172.529 103.867C172.938 103.624 173.259 103.256 173.467 102.835C173.622 102.526 173.135 102.294 172.98 102.603V102.621Z" fill="#13193F"/>
<path d="M170.099 97.4808C170.051 98.5195 168.715 98.6323 167.96 98.472C167.039 98.2702 166.178 97.8191 165.215 97.8547C163.403 97.926 162.994 99.8135 161.823 100.811C161.193 101.345 160.386 101.642 159.56 101.671C158.621 101.701 157.819 101.268 156.981 100.906C156.233 100.579 155.431 100.354 154.623 100.591C153.833 100.828 153.227 101.434 152.639 101.974C151.308 103.203 149.526 104.39 147.637 103.802C146.104 103.327 144.785 102.105 143.08 102.502C141.684 102.829 140.692 103.968 139.539 104.722C138.915 105.126 138.22 105.423 137.46 105.357C136.515 105.28 135.666 104.776 134.876 104.289C133.967 103.737 133.028 103.137 131.947 103.001C130.955 102.87 130.105 103.226 129.351 103.85C128.614 104.455 127.842 105.369 126.796 105.375C125.756 105.375 125.299 104.271 125.109 103.416C125.038 103.084 124.497 103.126 124.574 103.464C124.735 104.2 125.002 104.983 125.608 105.482C126.297 106.052 127.2 105.987 127.96 105.595C128.78 105.173 129.363 104.443 130.123 103.939C131.026 103.345 132.042 103.452 132.992 103.862C134.703 104.598 136.272 106.248 138.292 105.838C139.759 105.541 140.787 104.348 141.999 103.565C142.634 103.155 143.353 102.87 144.125 102.971C145.005 103.09 145.777 103.577 146.567 103.945C147.369 104.319 148.201 104.574 149.098 104.473C150.019 104.372 150.874 103.968 151.635 103.458C152.437 102.918 153.078 102.211 153.839 101.618C154.195 101.345 154.593 101.096 155.045 101.03C155.526 100.959 156.007 101.078 156.453 101.25C157.29 101.576 158.075 102.063 158.989 102.164C159.821 102.259 160.671 102.099 161.413 101.713C162.162 101.327 162.679 100.734 163.148 100.045C163.6 99.3861 164.081 98.5848 164.93 98.4127C165.952 98.2049 166.95 98.7985 167.93 98.9944C168.75 99.1606 169.641 99.0597 170.241 98.4127C170.503 98.1337 170.622 97.7954 170.639 97.4155C170.657 97.0712 170.117 97.1187 170.105 97.463L170.099 97.4808Z" fill="#13193F"/>
<path d="M166.279 90.4945C165.81 91.7766 164.544 92.6491 163.184 92.6966C162.394 92.7263 161.752 92.3108 160.997 92.1921C160.243 92.0734 159.595 92.4117 159.049 92.9044C158.49 93.403 158.027 93.9847 157.415 94.4239C156.768 94.8928 156.001 95.2549 155.187 95.249C154.373 95.249 153.637 94.8394 152.87 94.6257C152.211 94.4417 151.522 94.4358 150.898 94.7326C149.775 95.2668 149.11 96.3945 148.052 97.0178C146.448 97.9675 144.737 96.6616 143.24 96.1215C142.48 95.8484 141.66 95.6763 140.864 95.89C140.05 96.1096 139.48 96.7447 138.85 97.2671C138.25 97.7597 137.561 98.2464 136.771 98.3473C136.004 98.4483 135.339 98.0743 134.709 97.6885C134.08 97.2967 133.432 96.8694 132.672 96.816C131.804 96.7566 131.038 97.2136 130.384 97.736C129.719 98.2702 129.083 98.9528 128.234 99.1783C127.545 99.3623 126.558 99.0181 126.541 98.199C126.535 97.8547 125.994 97.9022 126.006 98.2464C126.024 98.8934 126.487 99.398 127.069 99.6235C127.735 99.8787 128.418 99.76 129.036 99.4336C130.396 98.7094 131.561 96.7982 133.319 97.5223C133.973 97.7953 134.525 98.2464 135.155 98.561C135.838 98.8994 136.569 99.0003 137.305 98.7866C138.072 98.567 138.737 98.0743 139.331 97.5638C140.038 96.9643 140.668 96.3233 141.66 96.3352C143.502 96.353 144.951 97.8725 146.805 97.8962C148.296 97.914 149.187 96.7803 150.197 95.8781C150.69 95.4389 151.26 95.0412 151.944 95.0293C152.769 95.0175 153.53 95.4567 154.308 95.6644C155.906 96.0918 157.403 95.2786 158.526 94.1865C159.144 93.587 159.815 92.6254 160.79 92.7085C161.259 92.7501 161.687 92.9815 162.132 93.1062C162.5 93.213 162.893 93.2486 163.279 93.2308C164.794 93.1537 166.243 92.1565 166.766 90.726C166.885 90.4055 166.398 90.174 166.279 90.4945Z" fill="#13193F"/>
<path d="M163.742 86.2861C162.613 85.5323 161.193 84.6835 159.809 85.2652C158.562 85.7875 158.009 87.0993 157.023 87.9303C156.518 88.3577 155.906 88.6366 155.241 88.4586C154.7 88.3161 154.231 87.96 153.767 87.6632C153.322 87.3842 152.841 87.1112 152.306 87.0637C151.67 87.0103 151.1 87.2892 150.619 87.6869C149.656 88.4764 148.92 89.6101 147.773 90.1561C146.294 90.8625 144.91 89.9187 143.632 89.2361C143.026 88.9156 142.367 88.6485 141.672 88.6841C141.149 88.7079 140.662 88.9097 140.222 89.1886C139.331 89.7585 138.672 90.6429 137.751 91.1771C136.183 92.0912 134.715 90.8387 133.278 90.2808C132.107 89.8238 130.384 89.8475 129.856 91.2364C129.731 91.557 130.218 91.7884 130.343 91.4679C130.563 90.8862 131.139 90.5835 131.739 90.5301C132.422 90.4707 133.081 90.7556 133.682 91.0465C134.87 91.6282 136.135 92.382 137.496 91.8894C138.47 91.5332 139.165 90.72 139.943 90.0671C140.317 89.7525 140.715 89.4617 141.185 89.3074C141.838 89.0996 142.498 89.2777 143.092 89.5626C144.345 90.1621 145.539 91.1059 147.019 90.9278C148.207 90.7853 149.092 89.9365 149.894 89.1233C150.351 88.6604 150.809 88.1321 151.379 87.8056C151.926 87.497 152.472 87.5623 153.013 87.8353C153.952 88.3102 154.801 89.1827 155.948 89.0284C157.397 88.8325 158.134 87.4139 159.049 86.4642C159.191 86.3158 159.346 86.1793 159.506 86.0606C159.524 86.0606 159.542 86.0724 159.566 86.0724C159.708 86.0724 159.78 85.9834 159.797 85.8766C160.184 85.6629 160.617 85.556 161.104 85.6213C161.948 85.7341 162.714 86.2268 163.409 86.6897C163.695 86.8797 164.045 86.4701 163.754 86.2802L163.742 86.2861Z" fill="#13193F"/>
<path d="M159.679 74.5751C159.025 73.9994 158.259 73.3702 157.356 73.2633C156.613 73.1802 155.983 73.5008 155.461 73.9993C154.967 74.4683 154.587 75.0678 154.035 75.4773C153.334 75.9997 152.585 75.8216 151.843 75.4951C151.076 75.1568 150.304 74.7769 149.437 74.9134C148.498 75.0618 147.72 75.6495 147.013 76.249C146.312 76.8425 145.587 77.5192 144.654 77.715C143.632 77.9287 142.587 77.5963 141.613 77.2996C140.02 76.8128 137.87 76.332 136.652 77.8456C136.432 78.1127 136.848 78.4629 137.062 78.1899C138.119 76.8722 140.086 77.3945 141.452 77.81C142.361 78.089 143.3 78.3739 144.262 78.3086C145.153 78.2493 145.914 77.8278 146.603 77.2877C147.316 76.7238 147.963 76.0412 148.807 75.6613C149.662 75.2755 150.417 75.4476 151.237 75.8097C151.926 76.1184 152.662 76.4804 153.441 76.3261C154.07 76.2015 154.558 75.7741 154.973 75.3171C155.449 74.7947 155.9 74.1062 156.601 73.8628C157.623 73.5067 158.615 74.3555 159.322 74.9787C159.584 75.2102 159.928 74.7947 159.667 74.5692L159.679 74.5751Z" fill="#13193F"/>
<path d="M161.045 80.4989C160.011 80.22 159.144 79.3771 158.003 79.6205C156.964 79.846 156.233 80.7542 155.472 81.4308C154.67 82.1491 153.791 82.6773 152.674 82.4636C151.617 82.2618 150.678 81.6623 149.609 81.5139C148.646 81.3774 147.779 81.7039 146.959 82.1787C146.133 82.6536 145.331 83.2946 144.381 83.4727C142.409 83.8348 140.906 81.6801 138.915 82.1491C137.941 82.3805 137.264 83.1641 136.486 83.7339C136.082 84.0307 135.612 84.2859 135.095 84.2621C134.484 84.2325 133.943 83.8229 133.717 83.265C133.586 82.9444 133.081 83.1284 133.212 83.4549C133.581 84.3512 134.537 84.9447 135.511 84.7785C136.414 84.6242 137.074 83.9594 137.757 83.4074C138.113 83.1166 138.5 82.8376 138.945 82.707C139.414 82.5705 139.907 82.6358 140.365 82.7842C141.315 83.1047 142.147 83.7042 143.127 83.9594C144.084 84.2028 144.981 83.9535 145.831 83.4964C146.686 83.0335 147.476 82.3865 148.433 82.1253C149.532 81.8226 150.577 82.3509 151.587 82.7189C152.579 83.075 153.589 83.2471 154.569 82.7604C155.645 82.2262 156.346 81.2172 157.314 80.5405C157.926 80.1131 158.55 80.0241 159.245 80.3031C159.821 80.5405 160.35 80.8729 160.962 81.0391C161.294 81.1281 161.39 80.5999 161.057 80.5108L161.045 80.4989Z" fill="#13193F"/>
<path d="M223.721 46.9092C226.59 47.1644 229.531 46.5293 232.05 45.1226C232.537 47.6215 233.963 49.9245 236 51.4559C236.398 51.7527 236.82 52.0257 237.284 52.2097C236.339 53.7767 235.596 55.4684 235.074 57.2312C232.929 59.8251 230.066 61.8314 226.881 62.9473C225.527 63.4221 223.798 63.6536 222.853 62.5674C222.342 61.9797 222.218 61.1606 221.98 60.4127C221.748 59.6648 221.398 58.9941 220.964 58.3828C219.515 56.3468 217.097 54.9698 214.703 53.8717C213.764 51.5271 212.219 49.4021 210.027 48.1794C206.938 46.4462 203.124 46.7489 199.684 47.568C195.383 48.6008 191.272 50.3875 187.571 52.8151C184.381 65.0188 181.083 77.1928 177.673 89.337C176.444 93.7235 175.196 98.1099 173.937 102.496L173.812 102.568C170.711 96.8397 166.635 91.6341 164.116 85.6273C161.693 79.8519 160.742 73.3999 156.892 68.3724C156.803 68.2478 156.696 68.135 156.583 68.04C161.223 56.2993 166.784 44.8555 174.133 34.5987C175.505 32.6934 177.032 30.7465 179.188 29.8086C180.875 29.0786 182.788 29.0429 184.618 29.2626C187.915 29.6543 191.058 30.8058 194.129 32.0582C204.36 36.2191 214.085 41.5137 223.715 46.9032L223.721 46.9092Z" fill="#F6C5BE"/>
<path d="M228.485 118.024C226.81 119.561 225.562 121.562 224.927 123.74C221.956 123.686 218.986 123.443 216.051 123.004C215 122.986 213.942 122.826 212.932 122.529C211.732 122.167 210.562 121.585 209.784 120.6C208.916 119.502 208.655 118.054 208.554 116.659C208.381 114.106 208.702 111.513 209.481 109.073C207.977 106.645 206.504 104.206 205.102 101.725C201.942 96.1452 199.126 90.3164 197.48 84.0958C196.654 80.9974 196.072 77.6794 196.197 74.4445C190.078 79.3889 184.03 84.4104 178.048 89.5091C177.519 89.9603 176.901 89.0818 177.424 88.6366C177.62 88.4704 177.816 88.3101 178.006 88.1499C181.297 76.4033 184.487 64.6329 187.571 52.8329C191.272 50.4052 195.383 48.6186 199.684 47.5858C203.124 46.7607 206.944 46.464 210.027 48.1972C212.213 49.4199 213.764 51.5508 214.703 53.8835C214.839 54.2218 214.958 54.5602 215.071 54.9044C215.938 57.6348 216.081 60.5314 216.152 63.3924C216.503 77.3233 215.219 91.3551 217.316 105.126L217.275 105.144C217.922 107.001 218.944 108.729 220.263 110.195C222.432 113.293 225.473 115.703 228.485 118.042V118.024Z" fill="#F6C5BE"/>
<path d="M234.723 114.391C234.426 109.376 235.579 104.277 238.026 99.8728C238.133 99.677 238.252 99.4811 238.448 99.3742C239.036 99.0419 239.654 99.7719 239.886 100.407C240.759 102.799 240.694 105.446 240.147 107.933C239.601 110.403 238.597 112.759 237.593 115.086C241.365 115.952 245.298 117.911 246.658 121.526C247.199 122.968 247.235 124.719 246.29 125.936C245.488 126.975 244.151 127.438 242.862 127.658C239.886 128.162 236.838 127.658 233.838 127.272C229.394 126.696 224.915 126.381 220.435 126.322C216.312 126.269 211.94 126.375 208.37 124.31C208.025 124.114 207.675 123.877 207.49 123.526C207.175 122.939 207.401 122.179 207.865 121.686C208.322 121.2 208.958 120.921 209.57 120.659L209.789 120.594C210.568 121.579 211.744 122.161 212.938 122.523C213.948 122.826 215.006 122.986 216.057 122.998C218.992 123.437 221.962 123.687 224.933 123.734C225.568 121.556 226.816 119.555 228.491 118.018C225.479 115.679 222.437 113.27 220.269 110.171C220.061 109.874 219.859 109.578 219.669 109.269C219.057 108.278 218.534 107.209 218.35 106.064C218.184 105.019 218.439 103.725 219.42 103.316C220.406 102.9 221.475 103.6 222.283 104.295C225.883 107.411 228.83 111.275 230.868 115.573C232.079 115.032 233.351 114.635 234.652 114.385H234.729L234.723 114.391Z" fill="#FF5B00"/>
<path d="M235.074 57.2312C234.634 58.7032 234.355 60.2168 234.242 61.7542C232.258 63.339 230.143 64.7576 227.921 65.9981C226.697 66.6867 225.42 67.3336 224.042 67.6126C222.663 67.8916 221.16 67.7788 219.966 67.0428C219.354 66.6688 218.825 66.105 218.677 65.4046C218.534 64.7516 218.742 64.0809 218.95 63.4517C219.497 61.7957 220.097 60.1575 220.744 58.537L220.97 58.3827C221.404 58.9941 221.754 59.6648 221.986 60.4127C222.224 61.1606 222.348 61.9797 222.859 62.5673C223.798 63.6536 225.533 63.4221 226.887 62.9472C230.071 61.8313 232.935 59.8251 235.08 57.2312H235.074Z" fill="#FF5B00"/>
<path d="M235.08 42.1726C236.434 41.122 238.252 40.6768 239.939 40.9973C241.721 41.3297 243.331 42.505 244.187 44.1076C244.662 44.9861 244.906 45.9833 245.06 46.9745C245.322 48.7255 245.274 50.5596 244.656 52.2157C244.044 53.8717 242.82 55.3378 241.193 56.0026C240.492 58.175 239.434 60.2228 238.068 62.051C237.367 62.9829 236.482 63.9089 235.329 64.0632C235.127 64.0929 234.907 64.0869 234.717 63.992C234.242 63.7664 234.177 63.1313 234.194 62.609C234.206 62.3181 234.218 62.0332 234.242 61.7483C234.355 60.211 234.634 58.6974 235.074 57.2253C235.596 55.4625 236.339 53.7708 237.284 52.2038C236.82 52.0198 236.398 51.7468 236 51.45C233.969 49.9186 232.537 47.6156 232.05 45.1167C232.014 44.9505 231.984 44.7902 231.961 44.624C229.733 43.9177 227.564 43.0511 225.467 42.0361C223.394 41.0389 221.321 39.8458 219.907 38.0236C219.598 37.62 219.307 37.1392 219.408 36.6406C219.497 36.1598 219.948 35.7977 220.429 35.6731C220.905 35.5484 221.41 35.6137 221.897 35.6909C226.804 36.4744 231.456 38.7596 235.08 42.1607V42.1726Z" fill="#FF5B00"/>
<path d="M243.064 122.873C243.005 122.535 242.47 122.577 242.529 122.921C242.648 123.574 242.731 124.648 241.799 124.672C240.925 124.696 240.42 123.829 240.04 123.176C239.921 122.974 239.589 123.063 239.559 123.283C239.44 124.055 239.179 124.891 238.258 124.951C237.497 124.998 236.897 124.298 236.993 123.55C237.04 123.206 236.511 123.111 236.464 123.455C236.333 124.476 237.082 125.467 238.139 125.491C238.626 125.503 239.107 125.313 239.452 124.969C239.713 124.707 239.856 124.375 239.945 124.031C240.432 124.725 241.086 125.348 242.007 125.194C243.153 125.004 243.23 123.799 243.064 122.873Z" fill="#FFF7E6"/>
<path d="M237.082 120.808C237.62 120.808 238.056 120.231 238.056 119.52C238.056 118.808 237.62 118.232 237.082 118.232C236.544 118.232 236.107 118.808 236.107 119.52C236.107 120.231 236.544 120.808 237.082 120.808Z" fill="#FFF7E6"/>
<path d="M241.882 120.541C242.387 120.541 242.797 119.972 242.797 119.27C242.797 118.569 242.387 118 241.882 118C241.377 118 240.967 118.569 240.967 119.27C240.967 119.972 241.377 120.541 241.882 120.541Z" fill="#FFF7E6"/>
<path d="M239.072 42.9619C238.793 43.1637 239.066 43.6267 239.345 43.4249C239.886 43.0391 240.812 42.493 241.246 43.324C241.65 44.1016 241.08 44.9266 240.658 45.5558C240.527 45.7517 240.753 46.0069 240.961 45.9476C241.71 45.722 242.577 45.5974 243.028 46.3987C243.403 47.0635 243.028 47.9063 242.315 48.1437C241.989 48.2506 242.125 48.7729 242.458 48.6601C243.432 48.3396 244.009 47.2356 243.569 46.274C243.367 45.8348 242.987 45.4786 242.529 45.3124C242.185 45.1878 241.822 45.2056 241.466 45.2709C241.882 44.5289 242.161 43.6742 241.626 42.9085C240.961 41.9588 239.838 42.4099 239.078 42.956L239.072 42.9619Z" fill="#FFF7E6"/>
<path d="M239.049 50.6705C239.691 50.3626 240.022 49.7201 239.789 49.2354C239.556 48.7508 238.847 48.6075 238.205 48.9155C237.564 49.2234 237.232 49.8659 237.465 50.3505C237.698 50.8352 238.407 50.9784 239.049 50.6705Z" fill="#FFF7E6"/>
<path d="M236.732 46.3977C237.365 46.0941 237.7 45.479 237.482 45.0239C237.263 44.5688 236.573 44.446 235.94 44.7497C235.307 45.0534 234.971 45.6685 235.19 46.1236C235.408 46.5787 236.099 46.7014 236.732 46.3977Z" fill="#FFF7E6"/>
<path d="M87.5391 27.482C87.6222 27.6422 87.6579 27.8262 87.6044 27.9984C87.5569 28.1705 87.4203 28.3011 87.2896 28.4198C86.2262 29.322 84.7647 29.5951 83.3686 29.5891C83.1666 29.5891 82.9468 29.5891 82.7745 29.4645C82.5785 29.3339 82.4894 29.0965 82.4181 28.8709C81.8478 27.0902 81.4557 25.2502 81.2537 23.3923C82.531 25.0187 84.6281 25.7428 86.4994 26.651C86.9093 26.8469 87.3311 27.0784 87.5331 27.482H87.5391Z" fill="#DBA6A1"/>
<path d="M71.0176 28.8115C72.9128 28.8115 74.4455 30.3489 74.4514 32.2364C74.4574 34.1239 72.9128 35.6612 71.0236 35.6612C69.1344 35.6612 67.5957 34.1239 67.5957 32.2423C67.5957 30.3489 69.1344 28.8175 71.0176 28.8115Z" fill="#DBA6A1"/>
<path d="M83.7429 34.7887C81.5091 35.8571 78.9724 36.1242 76.5723 35.5307C76.2337 35.4476 76.1386 35.9759 76.4773 36.059C78.9665 36.6703 81.628 36.3973 83.933 35.2933C84.2419 35.1449 84.0577 34.6403 83.7429 34.7887Z" fill="#242C5B"/>
<path d="M75.4435 23.5941C75.3544 23.2617 74.8495 23.4516 74.9386 23.784C75.093 24.3539 75.2713 24.9712 75.2059 25.5707C75.1643 25.9683 75.0039 26.4373 74.6178 26.6272C74.1128 26.8706 73.5544 26.556 73.1742 26.2236C72.7227 25.8318 72.3365 25.357 72.0038 24.8643C71.8078 24.5794 71.3681 24.8881 71.5642 25.173C71.9563 25.7487 72.4197 26.3245 72.9722 26.7519C73.495 27.1555 74.2197 27.4166 74.8495 27.108C75.3782 26.8528 75.6515 26.2829 75.7287 25.725C75.8238 25.0068 75.6277 24.2886 75.4376 23.606L75.4435 23.5941Z" fill="#242C5B"/>
<path d="M85.5667 20.6975C85.4954 20.0802 85.3825 19.4688 85.24 18.8693C85.2043 18.7268 85.0202 18.6675 84.8954 18.709C84.7469 18.7625 84.7053 18.9108 84.735 19.0533C84.8716 19.6231 84.9726 20.1989 85.038 20.7746C85.0796 21.1723 85.1806 21.8134 84.7588 22.0627C84.3785 22.2882 83.8439 21.9796 83.529 21.7659C83.131 21.5047 82.7983 21.1545 82.5369 20.7568C82.3527 20.466 81.9131 20.7746 82.0973 21.0655C82.3408 21.4454 82.6498 21.7837 83.0062 22.0567C83.3627 22.3238 83.7845 22.5791 84.23 22.6503C84.7112 22.7275 85.1627 22.5494 85.4182 22.122C85.6736 21.6947 85.6202 21.1723 85.5667 20.6975Z" fill="#242C5B"/>
<path d="M73.0019 20.2167C72.8236 19.9852 72.4969 19.914 72.2533 20.0861C71.4454 20.6618 70.679 21.291 69.9483 21.9618C69.8413 22.0627 69.7582 22.1517 69.7285 22.306C69.7047 22.4366 69.7344 22.6087 69.8176 22.7156C69.978 22.9233 70.3463 23.048 70.5661 22.8462C71.2969 22.1754 72.0632 21.5463 72.8712 20.9705C73.0969 20.8043 73.1801 20.4541 73.0019 20.2226V20.2167Z" fill="#F15A25"/>
<path d="M83.8617 16.133C83.7429 15.854 83.4577 15.7294 83.1726 15.8184C82.2102 16.1093 81.2418 16.4001 80.2794 16.6969C80.012 16.78 79.8576 17.1302 79.9645 17.3854C80.0833 17.6644 80.3685 17.7891 80.6537 17.7C81.6161 17.4092 82.5844 17.1183 83.5468 16.8215C83.8142 16.7384 83.9686 16.3882 83.8617 16.133Z" fill="#F15A25"/>
<path d="M147.458 32.2185C145.658 31.7259 143.817 32.4263 142.355 33.4709C140.674 34.6699 139.284 36.2963 138.042 37.9286C136.723 39.6618 135.577 41.5197 134.483 43.3953C130.069 50.9929 125.988 59.0476 118.871 64.5321C115.621 67.0369 111.825 68.9304 107.744 69.5358C103.829 70.1116 99.6881 69.5477 96.2305 67.5593C96.2959 67.488 96.3671 67.4168 96.4325 67.3456C96.5394 67.2209 96.5988 67.0785 96.5335 66.9182C96.4622 66.7401 96.2662 66.6748 96.1117 66.5858C95.4701 66.2119 94.9473 65.6717 94.3948 65.185C94.2285 65.0425 94.0621 64.9001 93.8898 64.7695C93.7235 64.6449 93.5512 64.544 93.3433 64.6211C93.2363 64.6627 93.1353 64.7339 93.0403 64.8111C91.1452 61.9204 92.2264 58.1453 92.9512 55.0232C93.8007 51.3669 94.0324 47.4672 92.565 43.9295C91.8462 42.2023 90.759 40.6353 89.3213 39.4363C89.054 39.2166 88.7094 39.6262 88.9768 39.8458C91.7392 42.1488 93.0046 45.7043 93.0997 49.2182C93.1532 51.1888 92.8442 53.1297 92.3927 55.047C91.965 56.8633 91.4719 58.6855 91.4422 60.5611C91.4184 61.8136 91.6204 63.1016 92.1373 64.2412C90.361 62.4487 88.7154 60.5018 86.6777 59.006C84.9905 57.7655 83.1072 56.8098 81.1111 56.1688C79.0853 55.5218 76.9763 55.2725 74.8732 55.047C72.7761 54.8155 70.6315 54.6018 68.6294 53.9073C66.6927 53.2366 64.9996 52.0851 63.6748 50.524C60.8648 47.2119 59.938 42.8552 59.6647 38.629C59.5934 37.5606 59.5637 36.4862 59.5459 35.4119C60.2766 35.2338 60.9123 34.7234 61.2093 34.0111C61.6014 33.0792 61.3638 31.9811 60.5321 31.3757C59.7895 30.8355 58.7617 30.7584 57.9716 31.251C57.1993 31.7318 56.8369 32.6637 57.0448 33.5422C57.2527 34.4385 57.9775 35.3941 58.9459 35.4713C58.9637 35.4772 58.9875 35.4772 59.0112 35.4831C59.0825 39.8043 59.3974 44.2857 61.4529 48.1794C62.3143 49.8177 63.4609 51.3194 64.9105 52.4887C66.4729 53.747 68.3383 54.5009 70.2869 54.9342C72.3484 55.3912 74.4633 55.5277 76.5545 55.7948C78.6932 56.0619 80.7844 56.5131 82.7686 57.3797C84.7469 58.2463 86.541 59.4512 88.1272 60.9173C89.6362 62.3122 90.9729 63.8792 92.4521 65.3037C92.3571 65.3809 92.2561 65.458 92.161 65.5293C92.0719 65.6005 92.0482 65.6955 92.066 65.7904C92.0601 65.832 92.06 65.8735 92.0779 65.921C92.3393 66.5917 92.8858 67.0725 93.4621 67.4702C93.7888 67.6958 94.1215 67.9095 94.4542 68.1231C94.6205 68.23 94.7869 68.3784 94.9711 68.4496C95.173 68.5268 95.3631 68.4496 95.5117 68.3071C95.6305 68.2003 95.7493 68.0816 95.8681 67.9629C96.4028 68.2834 96.9612 68.5802 97.5434 68.8295C99.3376 69.613 101.262 70.076 103.211 70.2303C107.203 70.5567 111.178 69.6308 114.73 67.8204C122.483 63.8673 127.592 56.5309 131.834 49.1885C134.05 45.3481 136.058 41.3416 138.808 37.8396C140.906 35.1745 144.939 30.7346 148.658 33.3522C149.336 33.833 149.835 34.5156 149.959 35.3466C150.013 35.6849 150.548 35.6434 150.494 35.2991C150.25 33.7202 148.955 32.6281 147.47 32.2245L147.458 32.2185ZM57.6389 33.6728C57.3894 33.0139 57.5141 32.2898 58.0666 31.8268C58.5954 31.3816 59.3558 31.3401 59.9677 31.6546C60.6925 32.0286 61.0073 32.8418 60.7697 33.6134C60.5499 34.3197 59.9439 34.8065 59.231 34.9133C58.4528 35.0201 57.8884 34.3257 57.6389 33.6728Z" fill="#242C5B"/>
<path d="M60.2172 32.7053C60.0865 32.4916 59.8667 32.3491 59.6291 32.272C59.2251 32.1473 58.7379 32.272 58.5063 32.6222C58.2983 32.8833 58.2211 33.2454 58.3399 33.56C58.4944 33.9755 58.9399 34.2426 59.3796 34.2011C59.8251 34.1595 60.2053 33.8271 60.3241 33.3938C60.3895 33.1564 60.342 32.9071 60.2113 32.6993L60.2172 32.7053ZM59.8014 33.3048C59.8014 33.3048 59.8014 33.3048 59.8014 33.3166C59.7895 33.3463 59.7716 33.3819 59.7538 33.4116C59.7479 33.4235 59.7182 33.465 59.7538 33.4176C59.7479 33.4294 59.736 33.4413 59.7301 33.4532C59.7063 33.4828 59.6766 33.5125 59.6528 33.5422C59.6528 33.5422 59.6528 33.5422 59.6469 33.5422C59.635 33.5481 59.6231 33.56 59.6112 33.5659C59.5875 33.5837 59.5637 33.6016 59.534 33.6134C59.5281 33.6134 59.4865 33.6372 59.4746 33.6431C59.4568 33.649 59.439 33.655 59.4211 33.6609C59.4152 33.6609 59.3974 33.6609 59.3855 33.6668C59.3617 33.6668 59.332 33.6728 59.3083 33.6787C59.2964 33.6787 59.2786 33.6787 59.2667 33.6787C59.2667 33.6787 59.2667 33.6787 59.2607 33.6787C59.2251 33.6728 59.1894 33.6668 59.1538 33.6609C59.136 33.655 59.1182 33.649 59.1003 33.6372C59.0825 33.6312 59.0706 33.6194 59.0528 33.6134C59.0528 33.6134 59.0409 33.6075 59.035 33.6016C59.0172 33.5897 58.9993 33.5719 58.9815 33.56C58.9696 33.5481 58.9518 33.5363 58.9399 33.5185C58.9162 33.4888 58.8983 33.4591 58.8805 33.4294C58.8805 33.4294 58.8805 33.4294 58.8805 33.4176C58.8746 33.3997 58.8627 33.376 58.8568 33.3582C58.8568 33.3582 58.8568 33.3463 58.8508 33.3404C58.8508 33.3285 58.8508 33.3226 58.8508 33.3107C58.8508 33.2929 58.8508 33.2751 58.8508 33.2573C58.8508 33.2514 58.8508 33.2157 58.8508 33.2098C58.8508 33.2039 58.8508 33.1979 58.8508 33.1979C58.8508 33.1861 58.8508 33.1801 58.8508 33.1683C58.8924 33.1326 58.9221 33.0852 58.934 33.0258C58.934 33.0258 58.934 33.0139 58.934 32.9961C58.934 32.9843 58.9459 32.9605 58.9459 32.9605C58.9459 32.9546 58.9518 32.9486 58.9578 32.9427C58.9578 32.9427 58.9578 32.9427 58.9578 32.9368C58.9756 32.9249 58.9934 32.9071 59.0172 32.8952C59.0409 32.8774 59.0647 32.8537 59.0825 32.8299C59.1122 32.8181 59.1419 32.8062 59.1776 32.7943C59.1835 32.7943 59.1835 32.7943 59.1894 32.7943C59.2073 32.7943 59.231 32.7884 59.2489 32.7884C59.2667 32.7884 59.2845 32.7884 59.2964 32.7884C59.2964 32.7884 59.3201 32.7884 59.332 32.7884C59.3439 32.7884 59.3736 32.7884 59.3677 32.7884C59.3914 32.7884 59.4152 32.7943 59.439 32.8002C59.4568 32.8002 59.4687 32.8062 59.4865 32.8121C59.4924 32.8121 59.4924 32.8121 59.4984 32.8121C59.534 32.8299 59.5637 32.8418 59.5994 32.8596C59.6112 32.8596 59.6053 32.8596 59.6112 32.8596C59.6291 32.8715 59.6469 32.8833 59.6647 32.9012C59.6766 32.913 59.6885 32.9249 59.7004 32.9308C59.7063 32.9368 59.7063 32.9308 59.7122 32.9368C59.7122 32.9368 59.7122 32.9368 59.7182 32.9486C59.7301 32.9605 59.736 32.9724 59.7479 32.9843C59.7479 32.9843 59.7657 33.0139 59.7716 33.0199C59.7835 33.0436 59.7954 33.0673 59.8014 33.0911C59.8014 33.0911 59.8073 33.1208 59.8132 33.1267C59.8132 33.1386 59.8132 33.1564 59.8132 33.1564C59.8132 33.1683 59.8132 33.1742 59.8132 33.1861C59.8132 33.1861 59.8132 33.2276 59.8132 33.2335C59.8132 33.2573 59.8013 33.281 59.7954 33.3048H59.8014Z" fill="#242C5B"/>
<path d="M214.78 53.7115C214.215 51.818 213.17 50.0907 211.762 48.7077C210.223 47.2001 208.346 46.2682 206.189 46.0842C204.08 45.9002 201.93 46.2444 199.874 46.7074C197.813 47.1763 195.805 47.853 193.88 48.7255C191.712 49.7108 189.662 50.9455 187.779 52.4056C187.695 52.4709 187.666 52.5481 187.672 52.6312C187.672 52.6312 187.672 52.6312 187.672 52.6371C186.329 57.3975 184.986 62.1638 183.644 66.9242C182.301 71.6845 180.959 76.4509 179.616 81.2112C178.856 83.9001 178.101 86.5889 177.341 89.2777C177.24 89.6279 177.804 89.7288 177.899 89.3786C179.242 84.6183 180.584 79.852 181.927 75.0916C183.27 70.3312 184.612 65.5649 185.955 60.8045C186.709 58.1335 187.458 55.4625 188.212 52.7855C191.385 50.3519 195.026 48.5593 198.888 47.5265C200.837 47.0042 202.88 46.6243 204.9 46.6006C205.958 46.5887 207.027 46.6896 208.037 47.0101C209.023 47.3247 209.914 47.8589 210.704 48.5178C212.392 49.9186 213.609 51.8061 214.239 53.9014C214.346 54.2516 214.875 54.0557 214.774 53.7055L214.78 53.7115Z" fill="#DBA6A1"/>
<path d="M178.909 161.057C177.626 161.313 176.337 161.544 175.042 161.758C169.047 162.761 162.97 163.384 156.916 163.871C153.714 164.126 150.506 164.352 147.304 164.53C146.038 164.601 144.779 164.666 143.514 164.726C141.494 164.826 139.462 164.904 137.436 164.975C126.22 165.349 114.98 165.26 103.763 164.714C101.684 164.613 99.6049 164.5 97.5256 164.369C94.6503 164.191 91.7749 163.978 88.9055 163.728C87.3074 163.592 85.7034 163.449 84.1053 163.301C83.529 163.07 82.9468 162.844 82.3646 162.613C72.6038 139.078 63.253 114.801 62.2549 89.3728C62.1123 85.8233 62.1539 82.1907 63.3361 78.843C64.5243 75.4953 67.0492 72.4444 70.4651 71.4828C75.5505 70.0464 80.7725 73.5187 84.0459 77.6559C89.9629 85.1288 92.1195 94.8098 94.1156 104.123C94.4304 105.589 94.7394 107.043 95.0542 108.509C97.3474 119.241 99.6346 129.978 101.934 140.71C126.113 139.843 150.274 138.33 174.376 136.163L174.364 136.062C175.689 127.96 176.444 119.745 177.364 111.566C178.446 101.891 179.765 92.2694 182.539 82.9505C184.06 77.8458 186.068 72.7709 189.502 68.6871C190.975 66.9421 192.828 65.3335 195.092 65.0071C195.502 64.9477 195.9 64.9358 196.31 64.9536C198.187 65.0723 200.011 66.0577 201.324 67.4347C202.928 69.1026 203.89 71.2929 204.562 73.5069C206.308 79.2466 206.35 85.3603 205.987 91.3434C204.674 113.08 198.336 134.246 196.583 155.947C193.957 157.003 191.29 157.917 188.581 158.713C185.402 159.645 182.165 160.416 178.903 161.057H178.909Z" fill="#FF7529"/>
<path d="M60.2529 150.035C49.1792 154.475 36.5252 154.867 25.2079 151.109C36.7747 150.795 48.6564 150.361 60.2529 150.035Z" fill="#D36026"/>
<path d="M92.9928 126.868C90.3372 129.901 87.0757 132.347 83.7013 134.561C72.4731 141.915 59.7182 146.812 48.7039 154.415H46.8385L47.3672 153.578C47.4444 153.448 47.5276 153.323 47.6108 153.193C49.6841 149.471 52.0426 145.898 54.6625 142.526C60.2529 135.309 67.0016 128.975 74.5821 123.888C78.4912 121.259 82.7092 118.926 87.3312 117.994C88.8104 117.692 90.3669 117.543 91.8284 117.935C93.2898 118.321 94.6502 119.336 95.1374 120.766C95.8622 122.909 94.5017 125.171 93.0046 126.868H92.9928Z" fill="#3F4972"/>
<path d="M47.3613 153.578L46.8325 154.415C46.981 154.136 47.1771 153.857 47.3613 153.578Z" fill="#16B6AA"/>
<path d="M91.6382 87.8117C89.5827 97.6826 82.8221 105.803 76.4654 113.632C68.8552 123.004 61.5004 132.596 54.6566 142.526C52.0367 145.898 49.6782 149.471 47.6048 153.193C47.5217 153.323 47.4385 153.448 47.3613 153.578L46.8325 154.415H43.5116C43.5116 153.982 43.5235 153.543 43.5413 153.121C43.9156 150.403 44.2839 147.684 44.6225 144.954C44.6225 144.954 44.6225 144.95 44.6225 144.942C45.2463 142.028 46.084 139.125 46.9692 136.276C51.9654 120.125 58.8508 104.271 69.7463 91.3375C73.9524 86.3456 79.0318 81.6505 85.3766 80.1013C86.7311 79.7689 88.2223 79.6087 89.4817 80.2141C92.0363 81.4606 92.2264 85.0219 91.6442 87.8117H91.6382Z" fill="#343A5A"/>
<path d="M44.6225 144.942C44.6225 144.942 44.6225 144.942 44.6225 144.954C44.2839 147.684 43.9156 150.403 43.5413 153.121C43.5235 153.549 43.5116 153.988 43.5116 154.415H41.1234C39.6025 149.786 38.0817 145.162 36.5549 140.538C34.2261 132.281 32.2716 123.918 30.7685 115.472C27.709 98.2346 26.6693 79.8995 33.4181 63.7427C34.3152 61.594 35.943 59.1426 38.2599 59.4097C39.46 59.5522 40.4521 60.4306 41.2006 61.3863C43.5948 64.4016 44.4681 68.3191 45.1275 72.1119C49.3039 96.1216 47.688 120.701 44.6225 144.942Z" fill="#3F4972"/>
<path d="M41.1174 154.415H36.7212C32.4082 148.379 27.8694 142.503 23.1227 136.81C16.5699 128.946 9.5657 121.354 4.49818 112.462C2.97733 109.803 1.62876 107.002 0.951503 104.01C0.274248 101.018 0.303952 97.8073 1.46835 94.9701C1.87827 93.9669 2.4783 92.9757 3.42883 92.4533C5.08632 91.5333 7.15373 92.3346 8.79934 93.2725C15.9105 97.3384 21.3285 103.909 25.2673 111.085C29.2061 118.267 31.7963 126.096 34.3568 133.866C35.0934 136.092 35.8242 138.312 36.5549 140.538C38.0817 145.168 39.6025 149.792 41.1234 154.415H41.1174Z" fill="#343A5A"/>
<path d="M89.3213 80.3447C87.6222 80.0954 86.5648 81.7633 86.036 83.1285C85.7331 83.906 85.4717 84.743 84.931 85.3899C84.331 86.1141 83.4637 86.304 82.5725 86.4406C81.7527 86.5652 80.8972 86.678 80.2022 87.1647C79.6378 87.5624 79.2576 88.15 78.9843 88.7733C78.414 90.085 78.2536 91.747 77.0832 92.7086C75.901 93.6761 74.1841 93.8423 73.192 95.0769C72.1167 96.4124 72.5147 98.2168 71.9206 99.7304C71.3325 101.226 69.6988 101.66 68.4453 102.437C67.8274 102.823 67.2809 103.316 66.9541 103.98C66.5858 104.74 66.5382 105.595 66.4491 106.42C66.36 107.257 66.2353 108.135 65.6412 108.782C65.1125 109.352 64.358 109.643 63.6629 109.952C62.9916 110.254 62.3143 110.581 61.7975 111.121C61.2569 111.691 61.0014 112.45 60.8588 113.21C60.7044 114.023 60.6747 114.854 60.437 115.65C60.1994 116.469 59.6885 117.057 59.0172 117.555C58.4053 118.006 57.7399 118.392 57.2052 118.932C56.6468 119.496 56.3497 120.202 56.2963 120.992C56.1953 122.577 57.0389 124.458 55.8448 125.8C54.8586 126.91 53.2367 127.361 52.7021 128.862C52.4228 129.64 52.4704 130.477 52.506 131.284C52.5476 132.115 52.6189 133.029 52.209 133.783C51.5198 135.047 49.8089 135.315 49.1435 136.614C48.7573 137.368 48.9475 138.187 49.1257 138.965C49.3217 139.832 49.3752 140.603 48.7455 141.298C48.2643 141.832 47.6405 142.224 47.1652 142.764C46.6781 143.316 46.4404 143.992 46.482 144.734C46.5711 146.278 47.8603 147.957 46.9513 149.453C46.5058 150.189 45.7394 150.676 45.1097 151.246C44.5512 151.75 44.1116 152.368 43.9215 153.104C43.7492 153.786 43.8799 154.481 44.4087 154.967C44.676 155.217 45.0443 154.777 44.777 154.534C44.1413 153.946 44.4621 152.979 44.872 152.362C45.3176 151.691 46.0305 151.24 46.6127 150.706C47.189 150.177 47.688 149.542 47.8068 148.753C47.9197 148.005 47.7177 147.263 47.4979 146.557C47.2662 145.803 46.9335 144.984 47.0761 144.176C47.2009 143.44 47.7593 142.942 48.3058 142.485C48.8168 142.051 49.3633 141.612 49.6485 140.989C49.993 140.235 49.8089 139.44 49.6306 138.662C49.4465 137.855 49.3693 137.083 49.9693 136.436C50.4505 135.914 51.1159 135.588 51.6802 135.166C52.2387 134.751 52.6902 134.246 52.91 133.581C53.1654 132.792 53.106 131.949 53.0645 131.13C53.0288 130.323 52.9813 129.45 53.3853 128.72C53.7476 128.055 54.413 127.628 55.019 127.206C55.6012 126.803 56.1953 126.375 56.5814 125.764C57.0032 125.111 57.0864 124.34 57.0448 123.58C56.9973 122.719 56.7894 121.853 56.8606 120.986C56.926 120.167 57.3181 119.532 57.9478 119.015C58.5478 118.523 59.231 118.149 59.8132 117.638C60.3717 117.146 60.7519 116.558 60.9658 115.852C61.4173 114.38 61.1202 112.445 62.3856 111.329C63.4965 110.349 65.1422 110.219 66.1343 109.067C67.263 107.755 66.7759 105.921 67.3759 104.414C67.9581 102.959 69.6097 102.526 70.8275 101.766C71.4216 101.398 71.9444 100.929 72.2711 100.306C72.6573 99.5761 72.7464 98.7392 72.8474 97.9319C72.9425 97.1425 73.0316 96.2878 73.495 95.6052C73.9227 94.976 74.6178 94.6139 75.2891 94.2993C75.9842 93.9788 76.7149 93.6998 77.3268 93.2309C77.8734 92.8095 78.2654 92.2456 78.5506 91.6224C79.109 90.3818 79.2457 88.7436 80.3091 87.7939C81.5923 86.6483 83.6122 87.2834 84.9429 86.1734C86.2321 85.0932 86.3034 83.2887 87.248 81.9888C87.7114 81.3537 88.3767 80.7839 89.2144 80.9085C89.5768 80.962 89.6778 80.404 89.3154 80.3506L89.3213 80.3447Z" fill="#89E0DA"/>
<path d="M91.0204 83.6568C88.555 85.016 89.8738 88.7317 87.7054 90.3522C86.642 91.1475 85.2756 91.3671 84.0815 91.9014C83.535 92.1447 83.0062 92.4593 82.5963 92.8985C82.0616 93.4684 81.8181 94.2103 81.7349 94.9701C81.6339 95.8307 81.6992 96.7211 81.4616 97.558C81.2774 98.1991 80.8794 98.7451 80.3863 99.1903C79.4061 100.075 78.1704 100.609 77.107 101.375C76.5842 101.754 76.0852 102.188 75.7109 102.728C75.2832 103.345 75.0633 104.052 74.9326 104.782C74.7841 105.613 74.7425 106.473 74.5049 107.292C74.2851 108.058 73.8455 108.675 73.2217 109.168C72.0692 110.064 70.578 110.557 69.6869 111.768C68.7423 113.05 68.772 114.694 68.3977 116.172C68.2076 116.914 67.8868 117.609 67.3046 118.125C66.7343 118.624 66.0273 118.944 65.356 119.282C64.7382 119.597 64.1263 119.929 63.6272 120.422C63.0688 120.974 62.7599 121.698 62.6173 122.464C62.3203 124.037 62.5995 125.728 61.6074 127.1C60.7697 128.263 59.4865 128.999 58.3934 129.889C57.8349 130.34 57.3003 130.827 56.8844 131.415C56.4507 132.02 56.1715 132.703 55.9636 133.415C55.518 134.923 55.4289 136.638 54.4962 137.956C53.6467 139.155 52.2149 139.731 51.199 140.757C50.7059 141.262 50.3554 141.873 50.2366 142.574C50.094 143.434 50.2723 144.307 50.2604 145.168C50.2426 146.046 49.9099 146.663 49.2623 147.233C48.7395 147.696 48.1514 148.141 47.9316 148.836C47.6642 149.667 48.1098 150.528 47.8841 151.353C47.6583 152.166 46.8088 152.617 46.2978 153.228C45.8226 153.798 45.4899 154.576 45.8285 155.3C45.983 155.626 46.5177 155.436 46.3632 155.104C45.9533 154.225 46.8503 153.454 47.4266 152.92C47.9791 152.403 48.4603 151.833 48.5019 151.038C48.5435 150.207 48.1573 149.317 48.6979 148.575C49.1257 147.981 49.8029 147.619 50.2485 147.043C51.3357 145.643 50.4267 143.903 50.8723 142.348C51.2763 140.942 52.8149 140.247 53.8724 139.398C54.4249 138.953 54.9002 138.443 55.2447 137.819C55.6309 137.131 55.8448 136.353 56.023 135.588C56.3794 134.092 56.623 132.537 57.6745 131.338C58.6251 130.251 59.9142 129.533 60.9895 128.589C61.4885 128.15 61.9401 127.669 62.2906 127.1C62.6945 126.441 62.8728 125.693 62.9559 124.927C63.1282 123.354 62.9797 121.597 64.3758 120.529C65.5283 119.644 67.0551 119.324 68.0294 118.202C69.0393 117.051 69.0869 115.448 69.3839 114.023C69.5443 113.246 69.7938 112.474 70.3344 111.875C70.8157 111.335 71.4513 110.955 72.0692 110.587C72.687 110.225 73.3108 109.868 73.8455 109.388C74.4217 108.871 74.8079 108.242 75.0336 107.506C75.4851 106.01 75.2594 104.271 76.2456 102.965C77.7842 100.929 81.0101 100.532 81.925 97.9616C82.4656 96.454 81.8537 94.5368 83.03 93.2784C83.9152 92.3287 85.3529 92.0735 86.5173 91.6224C87.7114 91.1594 88.7332 90.4768 89.2382 89.26C89.7491 88.0432 89.7491 86.678 90.2362 85.4612C90.462 84.8973 90.8006 84.4343 91.3412 84.1376C91.662 83.9595 91.3293 83.4965 91.0145 83.6746L91.0204 83.6568Z" fill="#89E0DA"/>
<path d="M40.06 151.424C39.2936 150.207 37.8678 149.613 37.0539 148.438C36.0796 147.031 36.7747 145.292 36.6618 143.725C36.5608 142.33 35.7172 141.321 34.7726 140.372C33.7983 139.392 32.7765 138.431 32.7052 136.965C32.6339 135.439 33.2399 133.878 32.5092 132.424C32.2062 131.818 31.725 131.427 31.0893 131.213C30.7388 131.094 30.3764 131.005 30.1031 130.738C29.8655 130.507 29.7289 130.192 29.6516 129.877C29.3011 128.388 30.2041 126.904 29.8061 125.408C29.4615 124.09 28.1902 123.574 27.0793 123.022C26.5149 122.743 25.9505 122.428 25.5762 121.906C25.2079 121.395 25.0653 120.772 24.9762 120.161C24.8099 118.974 24.8693 117.662 24.2395 116.594C23.5207 115.377 22.1484 115.3 20.9721 114.801C20.3602 114.54 19.9265 114.118 19.7483 113.465C19.576 112.813 19.6295 112.106 19.6057 111.435C19.5819 110.836 19.5047 110.225 19.1958 109.696C18.8512 109.121 18.2631 108.812 17.6452 108.604C17.0393 108.402 16.3382 108.284 15.8511 107.838C15.3758 107.405 15.263 106.729 15.1857 106.117C15.0431 104.96 14.9897 103.6 13.8015 103.013C12.6668 102.449 11.1281 102.87 10.4509 101.559C9.96374 100.615 9.96374 99.5108 9.57164 98.5374C9.4053 98.1219 9.16173 97.7301 8.78745 97.4689C8.57952 97.3265 8.34783 97.2315 8.09832 97.1781C7.64681 97.0891 7.16561 97.1959 6.72599 97.0416C6.09032 96.822 5.78139 96.1216 5.55564 95.5399C5.30613 94.8988 5.11008 94.24 4.67046 93.6998C4.28431 93.225 3.78528 92.9163 3.16149 92.9282C2.79316 92.9341 2.84662 93.5039 3.20902 93.4921C4.59323 93.4624 4.86651 95.6052 5.37742 96.5192C5.6804 97.0594 6.1319 97.4986 6.75569 97.6351C7.38542 97.7717 8.10426 97.558 8.61517 98.0625C9.30431 98.7392 9.33995 99.9797 9.57758 100.858C9.87462 101.944 10.4331 102.799 11.5796 103.09C12.2391 103.256 12.9757 103.221 13.5876 103.547C14.1461 103.85 14.3659 104.443 14.4669 105.037C14.657 106.153 14.5679 107.494 15.5065 108.307C16.4689 109.138 18.2453 108.901 18.7977 110.201C19.2968 111.37 18.8215 112.729 19.2849 113.923C19.7839 115.211 21.1087 115.424 22.2672 115.828C22.8672 116.036 23.4019 116.338 23.7405 116.89C24.0494 117.401 24.1504 118.006 24.2217 118.588C24.3643 119.763 24.3465 121.045 25 122.09C25.6594 123.152 26.907 123.514 27.9407 124.09C28.4932 124.399 29.0041 124.814 29.212 125.432C29.4794 126.233 29.2595 127.117 29.111 127.919C28.909 129.064 28.8496 130.59 29.9309 131.332C30.5249 131.741 31.3032 131.718 31.7725 132.323C32.1706 132.839 32.2894 133.528 32.3013 134.163C32.3191 135 32.123 135.831 32.1111 136.674C32.0993 137.404 32.2537 138.098 32.6161 138.733C33.234 139.826 34.2736 140.585 35.0756 141.529C35.4796 142.004 35.8301 142.532 35.9846 143.144C36.1866 143.939 36.0559 144.782 35.9846 145.589C35.9192 146.337 35.8836 147.103 36.1093 147.833C36.3113 148.492 36.739 149.038 37.2262 149.513C38.2183 150.474 39.5253 151.157 39.9471 152.563C40.1253 153.157 40.1016 153.84 39.6085 154.273C39.3352 154.51 39.6619 154.979 39.9352 154.736C40.9452 153.857 40.6778 152.439 40.0362 151.412L40.06 151.424Z" fill="#89E0DA"/>
<path d="M36.4064 151.252C35.9252 150.842 35.3964 150.468 34.9925 149.97C34.8023 149.732 34.636 149.471 34.5588 149.18C34.4578 148.8 34.535 148.42 34.5944 148.041C34.6835 147.459 34.6716 146.913 34.3568 146.402C34.1132 146.011 33.7389 145.708 33.3587 145.453C32.5924 144.942 31.529 144.515 31.119 143.63C30.5606 142.414 31.4458 141.001 30.7923 139.778C30.2457 138.763 29.0457 138.496 28.1249 137.944C25.9505 136.638 27.2397 133.528 25.7901 131.735C25.0416 130.809 23.8653 130.524 22.9029 129.907C22.3801 129.575 21.9939 129.13 21.8038 128.53C21.6078 127.907 21.6196 127.23 21.6018 126.589C21.5662 125.384 21.4058 124.191 20.4077 123.39C19.5285 122.684 18.3819 122.446 17.5027 121.752C16.4095 120.891 16.6115 119.544 16.4689 118.309C16.3977 117.704 16.2254 117.104 15.8273 116.629C15.4887 116.22 15.0313 115.935 14.5501 115.715C13.5876 115.27 12.3757 115.068 11.6391 114.249C10.8014 113.317 10.938 111.898 10.7717 110.747C10.6054 109.572 10.1123 108.628 9.05479 108.034C8.01515 107.453 6.64282 107.251 5.96556 106.171C5.25266 105.043 5.43089 103.565 4.95562 102.342C4.516 101.208 3.66646 100.259 2.61494 99.6533C2.09214 99.3506 1.51588 99.1547 0.9218 99.0479C0.55941 98.9826 0.458416 99.5464 0.820806 99.6058C2.06838 99.8195 3.17932 100.538 3.9041 101.57C4.68234 102.68 4.69423 103.974 4.99721 105.251C5.13979 105.862 5.38336 106.444 5.81704 106.907C6.19726 107.322 6.69629 107.601 7.2072 107.827C8.25872 108.296 9.48253 108.622 9.9578 109.785C10.4034 110.889 10.243 112.142 10.5341 113.287C10.8192 114.397 11.5796 115.104 12.6074 115.549C13.552 115.964 14.7877 116.184 15.4471 117.057C16.2313 118.101 15.8155 119.591 16.1719 120.778C16.4987 121.888 17.4611 122.47 18.4472 122.933C19.4809 123.425 20.5562 123.894 20.877 125.099C21.1978 126.298 20.8949 127.58 21.287 128.768C21.6731 129.925 22.6949 130.471 23.7227 130.97C24.2396 131.219 24.7742 131.48 25.1841 131.896C25.5822 132.299 25.796 132.833 25.9149 133.38C26.1644 134.489 26.0812 135.665 26.4614 136.745C26.8535 137.867 27.7328 138.413 28.7546 138.894C29.2477 139.125 29.7823 139.363 30.1269 139.796C30.5547 140.336 30.5071 141.036 30.4477 141.689C30.3883 142.319 30.3051 142.966 30.4893 143.583C30.6259 144.046 30.9349 144.438 31.2973 144.752C32.0102 145.375 32.9488 145.702 33.6201 146.379C34.036 146.8 34.1251 147.281 34.0419 147.857C33.9409 148.527 33.8637 149.133 34.1845 149.756C34.7608 150.89 36.0143 151.406 36.7272 152.421C37.1074 152.961 37.351 153.62 36.9767 154.225C36.7866 154.54 37.3034 154.777 37.4935 154.469C38.2005 153.317 37.2797 151.988 36.4004 151.24L36.4064 151.252Z" fill="#89E0DA"/>
<path d="M60.2529 150.035C59.9736 153.662 59.3142 157.253 58.6488 160.826C56.8309 170.649 55.013 180.467 53.1951 190.284C46.785 191.614 40.1075 192.178 33.7805 190.73C30.8517 177.523 27.911 164.316 24.9822 151.115C25.0534 151.115 25.1307 151.115 25.202 151.115C36.5192 154.872 49.1732 154.481 60.2469 150.041L60.2529 150.035Z" fill="#FC8347"/>
</g>
<defs>
<clipPath id="clip0_84_3341">
<rect width="251" height="213" fill="white" transform="translate(0.5)"/>
</clipPath>
</defs>
</svg>
