<svg width="115" height="115" viewBox="0 0 115 115" fill="none" xmlns="http://www.w3.org/2000/svg">
<path d="M21.424 93.0526H24.9325V102.435C24.9325 103.519 24.6745 104.464 24.1584 105.268C23.6423 106.069 22.9226 106.689 21.9993 107.129C21.076 107.565 20.0036 107.783 18.782 107.783C17.5462 107.783 16.4666 107.565 15.5433 107.129C14.62 106.689 13.9027 106.069 13.3913 105.268C12.88 104.464 12.6243 103.519 12.6243 102.435V93.0526H16.1399V102.129C16.1399 102.631 16.2488 103.079 16.4666 103.472C16.6892 103.865 16.9993 104.172 17.397 104.395C17.7947 104.617 18.2564 104.729 18.782 104.729C19.3075 104.729 19.7668 104.617 20.1598 104.395C20.5575 104.172 20.8677 103.865 21.0902 103.472C21.3127 103.079 21.424 102.631 21.424 102.129V93.0526ZM34.1175 98.9901V101.661H27.3846V98.9901H34.1175ZM39.7159 107.598H35.9375L40.8452 93.0526H45.5256L50.4332 107.598H46.6548L43.2386 96.7173H43.125L39.7159 107.598ZM39.2116 101.874H47.1094V104.544H39.2116V101.874ZM57.4734 96.6889V99.2457H50.5913V96.6889H57.4734ZM52.033 94.0753H55.506V104.168C55.506 104.381 55.5392 104.553 55.6055 104.686C55.6765 104.814 55.7783 104.906 55.9109 104.963C56.0434 105.015 56.2021 105.041 56.3867 105.041C56.5193 105.041 56.659 105.029 56.8058 105.006C56.9573 104.977 57.0709 104.954 57.1467 104.935L57.6722 107.442C57.5065 107.489 57.2721 107.548 56.9691 107.619C56.6708 107.69 56.3133 107.735 55.8967 107.754C55.0823 107.792 54.3839 107.697 53.8015 107.47C53.2238 107.238 52.7811 106.878 52.4734 106.391C52.1703 105.903 52.0236 105.29 52.033 104.551V94.0753ZM65.4031 96.6889V99.2457H58.521V96.6889H65.4031ZM59.9627 94.0753H63.4357V104.168C63.4357 104.381 63.4689 104.553 63.5352 104.686C63.6062 104.814 63.708 104.906 63.8406 104.963C63.9731 105.015 64.1317 105.041 64.3164 105.041C64.449 105.041 64.5887 105.029 64.7354 105.006C64.887 104.977 65.0006 104.954 65.0763 104.935L65.6019 107.442C65.4362 107.489 65.2018 107.548 64.8988 107.619C64.6005 107.69 64.243 107.735 63.8263 107.754C63.012 107.792 62.3136 107.697 61.7312 107.47C61.1535 107.238 60.7108 106.878 60.4031 106.391C60.1 105.903 59.9532 105.29 59.9627 104.551V94.0753ZM72.1573 107.804C71.0162 107.804 70.0314 107.579 69.2028 107.129C68.3789 106.675 67.7444 106.028 67.2994 105.19C66.859 104.348 66.6388 103.346 66.6388 102.186C66.6388 101.059 66.8614 100.074 67.3065 99.2315C67.7515 98.384 68.3789 97.7258 69.1886 97.2571C69.9982 96.7836 70.9523 96.5469 72.0508 96.5469C72.8273 96.5469 73.5375 96.6676 74.1815 96.9091C74.8254 97.1506 75.3817 97.508 75.8505 97.9815C76.3192 98.455 76.6838 99.0398 76.9442 99.7358C77.2047 100.427 77.3349 101.22 77.3349 102.115V102.982H67.8533V100.964H74.1033C74.0986 100.595 74.011 100.266 73.8406 99.9773C73.6701 99.6884 73.4357 99.4635 73.1374 99.3026C72.8439 99.1368 72.5053 99.054 72.1218 99.054C71.7335 99.054 71.3855 99.1416 71.0778 99.3168C70.77 99.4872 70.5262 99.7216 70.3462 100.02C70.1663 100.313 70.0716 100.647 70.0621 101.021V103.074C70.0621 103.519 70.1497 103.91 70.3249 104.246C70.5001 104.577 70.7487 104.835 71.0707 105.02C71.3926 105.205 71.7762 105.297 72.2212 105.297C72.529 105.297 72.8084 105.254 73.0593 105.169C73.3103 105.084 73.5257 104.958 73.7056 104.793C73.8855 104.627 74.0205 104.423 74.1104 104.182L77.2994 104.274C77.1668 104.989 76.8756 105.612 76.4258 106.142C75.9807 106.668 75.396 107.077 74.6715 107.371C73.9471 107.66 73.109 107.804 72.1573 107.804ZM82.5817 101.376V107.598H79.1087V96.6889H82.4112V98.6918H82.532C82.7734 98.0241 83.1854 97.5009 83.7678 97.1222C84.3501 96.7386 85.0438 96.5469 85.8487 96.5469C86.6158 96.5469 87.281 96.7197 87.8445 97.0653C88.4126 97.4062 88.853 97.8845 89.1655 98.5C89.4827 99.1108 89.639 99.8258 89.6342 100.645V107.598H86.1612V101.327C86.166 100.721 86.0121 100.247 85.6996 99.9062C85.3918 99.5653 84.9633 99.3949 84.4141 99.3949C84.0495 99.3949 83.7275 99.4754 83.4482 99.6364C83.1735 99.7926 82.9605 100.018 82.8089 100.311C82.6622 100.605 82.5864 100.96 82.5817 101.376ZM95.7688 107.754C94.9639 107.754 94.2324 107.546 93.5742 107.129C92.9161 106.713 92.3905 106.088 91.9975 105.254C91.6045 104.421 91.408 103.386 91.408 102.151C91.408 100.867 91.6116 99.8115 92.0188 98.983C92.426 98.1544 92.9587 97.5412 93.6168 97.1435C94.2797 96.7457 94.9923 96.5469 95.7546 96.5469C96.3275 96.5469 96.8176 96.6463 97.2248 96.8452C97.632 97.0393 97.9682 97.2902 98.2333 97.598C98.4985 97.9058 98.6997 98.2254 98.837 98.5568H98.908V93.0526H102.381V107.598H98.9435V105.83H98.837C98.6902 106.166 98.4819 106.481 98.212 106.774C97.9421 107.068 97.6036 107.304 97.1964 107.484C96.7939 107.664 96.3181 107.754 95.7688 107.754ZM96.9762 105.048C97.3976 105.048 97.7575 104.93 98.0558 104.693C98.354 104.452 98.5837 104.113 98.7447 103.678C98.9057 103.242 98.9862 102.731 98.9862 102.143C98.9862 101.547 98.9057 101.033 98.7447 100.602C98.5884 100.171 98.3588 99.84 98.0558 99.608C97.7575 99.3759 97.3976 99.2599 96.9762 99.2599C96.5453 99.2599 96.1808 99.3783 95.8825 99.6151C95.5842 99.8518 95.3569 100.186 95.2006 100.616C95.0491 101.047 94.9734 101.556 94.9734 102.143C94.9734 102.731 95.0515 103.242 95.2077 103.678C95.364 104.113 95.5889 104.452 95.8825 104.693C96.1808 104.93 96.5453 105.048 96.9762 105.048Z" fill="#1E1E3F"/>
<g clip-path="url(#clip0_21_84)">
<path d="M58.424 46.9834V58.1224C60.2028 59.3499 61.9724 60.2081 63.2535 61.5371C66.1475 64.5456 66.3595 69.0769 64.0553 72.4639C61.6866 75.9431 57.3456 77.3366 53.4655 75.8785C49.5207 74.3927 47.1982 70.5812 47.7143 66.2529C47.8065 65.45 47.6406 65.0532 46.9585 64.6471C43.9355 62.8199 40.9585 60.9372 37.9539 59.073C37.8894 59.0269 37.8065 59.0176 37.6774 58.9715C34.4332 61.9985 30.7281 62.8475 26.7189 60.688C23.2811 58.833 21.8065 55.7414 22.1014 51.8469C22.3779 48.2293 24.8203 45.5345 29.189 43.984V32.3097C23.7327 30.0856 21.2166 26.2188 22.212 21.6413C23.189 17.1377 26.9217 14.2676 31.5668 14.4337C35.7143 14.5906 39.4378 18.0329 39.9539 22.1858C40.5254 26.8002 37.8341 30.6393 32.8756 32.2359V44.0117C35.4101 44.6762 37.4747 46.0605 38.8111 48.3954C40.1475 50.7395 40.3042 53.2128 39.5668 55.7322C39.6498 55.8429 39.6866 55.9352 39.7512 55.9814C42.9217 57.9655 46.1014 59.9405 49.0968 61.8139C50.977 60.6234 52.7742 59.4791 54.765 58.2055V46.9742C51.8525 46.162 49.5484 44.5009 48.3134 41.603C47.4839 39.6466 47.3917 37.6347 47.9539 35.6044C49.0507 31.6822 53.0415 28.849 57.0138 29.1535C61.4102 29.4857 64.9585 32.6512 65.4931 36.8133C66.0369 41.0309 63.8341 45.4514 58.4055 46.9834H58.424Z" fill="#FF8039"/>
<path d="M84.811 32.2453V43.9934C87.6129 44.7133 89.7788 46.3006 91.0967 48.9308C92.0276 50.7858 92.2212 52.7699 91.788 54.7726C90.8848 58.9716 87.0138 61.9617 82.8018 61.8141C78.4331 61.6664 74.9124 58.5933 74.1106 54.2373C73.2995 49.8075 75.8617 46.0514 81.152 43.9473V32.2176C77.3732 31.1286 74.8663 28.7845 74.1935 24.8808C73.9631 23.5518 74.3594 22.1214 74.3963 20.7278C74.4055 20.3126 74.2857 19.6942 74 19.5097C70.8571 17.4793 67.6774 15.5229 64.4608 13.5202C64.1843 13.8709 63.9447 14.157 63.705 14.4523C61.0599 17.8393 56.5253 18.9006 52.7004 17.0271C48.7834 15.1168 46.8387 10.8808 47.9262 6.67251C48.9493 2.71339 52.7742 -0.165964 56.8202 0.000152752C61.2258 0.184727 65.1428 3.32249 65.4009 7.59538C65.5391 9.90256 66.6451 10.7885 68.2857 11.7483C71.106 13.4095 73.8617 15.1814 76.6636 16.9256C80.0092 14.1293 83.6682 13.4279 87.5115 15.6521C90.9401 17.6362 92.4516 20.8017 91.8617 24.7147C91.2719 28.7015 88.7189 31.064 84.811 32.2361V32.2453Z" fill="#FF8039"/>
</g>
<defs>
<clipPath id="clip0_21_84">
<rect width="70" height="76.4507" fill="white" transform="translate(22)"/>
</clipPath>
</defs>
</svg>
