<svg width="181" height="180" viewBox="0 0 181 180" fill="none" xmlns="http://www.w3.org/2000/svg">
<circle opacity="0.1" cx="90.5" cy="90" r="90" fill="#FF8039"/>
<circle opacity="0.3" cx="90.5" cy="90" r="68" fill="#FF8039"/>
<circle cx="90.5" cy="90" r="48" fill="#FF8039"/>
<path d="M80.5863 101.179L69.7432 91.1594C69.4597 90.8941 69.122 90.6836 68.7497 90.5399C68.3775 90.3962 67.978 90.3222 67.5746 90.3222C67.1712 90.3222 66.7717 90.3962 66.3995 90.5399C66.0272 90.6836 65.6895 90.8941 65.406 91.1594C65.119 91.4214 64.8911 91.7334 64.7356 92.0774C64.5801 92.4214 64.5 92.7905 64.5 93.1633C64.5 93.5362 64.5801 93.9053 64.7356 94.2493C64.8911 94.5933 65.119 94.9053 65.406 95.1673L78.3867 107.163C79.5949 108.279 81.5467 108.279 82.7549 107.163L115.594 76.8452C115.881 76.5832 116.109 76.2711 116.264 75.9271C116.42 75.5831 116.5 75.214 116.5 74.8412C116.5 74.4684 116.42 74.0993 116.264 73.7553C116.109 73.4113 115.881 73.0992 115.594 72.8372C115.31 72.572 114.973 72.3614 114.601 72.2177C114.228 72.074 113.829 72 113.425 72C113.022 72 112.623 72.074 112.25 72.2177C111.878 72.3614 111.54 72.572 111.257 72.8372L80.5863 101.179Z" fill="white"/>
</svg>
